<?xml version="1.0" encoding="utf-8"?>
<!-- Generator: Adobe Illustrator 16.0.0, SVG Export Plug-In . SVG Version: 6.00 Build 0)  -->
<!DOCTYPE svg PUBLIC "-//W3C//DTD SVG 1.1//EN" "http://www.w3.org/Graphics/SVG/1.1/DTD/svg11.dtd">
<svg version="1.1" id="alchemists-svg-logo" xmlns="http://www.w3.org/2000/svg" xmlns:xlink="http://www.w3.org/1999/xlink"
	 x="0px" y="0px" width="967px" height="500.583px" viewBox="0 0 967 500.583" enable-background="new 0 0 967 500.583"
	 xml:space="preserve">
<g id="items">
	<g id="lines-feature">
		
			<polyline fill="none" stroke="#979797" stroke-width="4" stroke-linecap="round" stroke-miterlimit="10" stroke-dasharray="1,8" points="
			459.135,335.178 348.811,335.178 348.811,205.21 271.13,127.53 104.661,127.53 86.022,108.891 		"/>
		
			<polyline fill="none" stroke="#979797" stroke-width="4" stroke-linecap="round" stroke-miterlimit="10" stroke-dasharray="1,8" points="
			503.852,246.409 614.175,246.409 614.175,205.21 691.855,127.53 858.324,127.53 876.963,108.891 		"/>
		
			<polyline fill="none" stroke="#6D41B5" stroke-width="4" stroke-linecap="round" stroke-miterlimit="10" stroke-dasharray="1,8" points="
			364.705,355.444 302.284,356.903 302.284,265.754 248.779,209.776 171.232,209.776 171.232,247.272 		"/>
		
			<polyline fill="none" stroke="#6D41B5" stroke-width="4" stroke-linecap="round" stroke-miterlimit="10" stroke-dasharray="1,8" points="
			366.371,105.179 401.224,125.105 401.224,158.961 		"/>
		
			<polyline fill="none" stroke="#6D41B5" stroke-width="4" stroke-linecap="round" stroke-miterlimit="10" stroke-dasharray="1,8" points="
			596.494,106.089 561.641,126.015 561.641,159.871 		"/>
		
			<polyline fill="none" stroke="#6D41B5" stroke-width="4" stroke-linecap="round" stroke-miterlimit="10" stroke-dasharray="1,8" points="
			585.025,315.823 647.999,315.823 646.986,242.259 707.634,177.265 866.141,177.265 866.141,247.905 		"/>
		
			<polyline fill="none" stroke="#979797" stroke-width="4" stroke-linecap="round" stroke-miterlimit="10" stroke-dasharray="1,8" points="
			619.492,347.502 731.861,347.502 731.861,280.237 		"/>
		
			<polyline fill="none" stroke="#979797" stroke-width="4" stroke-linecap="round" stroke-miterlimit="10" stroke-dasharray="1,8" points="
			128.436,175.129 255.549,175.129 324.59,238.449 324.59,260.066 		"/>
	</g>
	<g id="phoenix">
		<path fill="none" stroke="#6D41B5" stroke-miterlimit="10" d="M830.675,47.299c0.281-0.207,0.526-0.398,0.782-0.574
			c3.191-2.184,6.717-3.617,10.45-4.576c2.203-0.566,4.438-0.932,6.707-1.124c2.051-0.172,4.104-0.263,6.157-0.116
			c4.191,0.299,8.089,1.518,11.655,3.747c2.927,1.828,5.468,4.107,7.761,6.654c2.222,2.469,4.358,5.014,6.531,7.525
			c2.141,2.472,4.344,4.876,6.892,6.948c3.081,2.507,6.505,4.33,10.429,5.15c1.479,0.31,2.975,0.478,4.484,0.52
			c0.124,0.003,0.246,0.001,0.475,0.001c-0.143,0.112-0.193,0.168-0.256,0.2c-2.049,1.014-4.143,1.915-6.402,2.361
			c-1.232,0.244-2.47,0.146-3.705,0c-2.956-0.349-5.336-1.813-7.469-3.776c-0.97-0.895-1.951-1.782-3.145-2.392
			c-1.567-0.801-3.216-0.94-4.901-0.494c-1.561,0.413-2.507,1.681-2.688,3.302c-0.151,1.369,0.244,2.604,0.762,3.816
			c1.805,4.239,4.825,7.399,8.812,9.676c2.755,1.574,5.736,2.506,8.857,3.041c2.645,0.453,5.309,0.571,7.979,0.464
			c2.149-0.087,4.267-0.42,6.3-1.153c0.104-0.037,0.212-0.053,0.422-0.104c-0.136,0.17-0.195,0.263-0.271,0.342
			c-3.455,3.605-7.599,6.018-12.493,7.12c-1.452,0.327-2.926,0.467-4.414,0.517c-2.312,0.078-4.422-0.538-6.38-1.73
			c-1.85-1.126-3.44-2.562-4.854-4.181c-1.804-2.068-3.531-4.198-5.297-6.297c-1.275-1.516-2.594-2.995-4.188-4.194
			c-1.116-0.838-2.323-1.508-3.734-1.664c-1.484-0.163-2.947-0.036-4.292,0.704c-1.32,0.729-1.971,1.901-2.183,3.352
			c-0.265,1.812,0.318,3.449,1.112,5.017c1.879,3.716,4.681,6.462,8.684,7.848c0.955,0.331,1.98,0.457,2.973,0.678
			c0.079,0.018,0.157,0.041,0.229,0.14c-0.453,0.05-0.906,0.122-1.362,0.147c-1.217,0.067-2.436,0.187-3.648,0.155
			c-1.854-0.048-3.641-0.537-5.394-1.11c-3.922-1.283-7.4-3.295-10.307-6.24c-3.117-3.165-5.066-6.963-6.117-11.239
			c-0.479-1.952-0.772-3.934-0.849-5.942c-0.059-1.545-0.068-3.092-0.135-4.637c-0.148-3.527-0.616-6.999-1.948-10.305
			c-0.913-2.266-2.198-4.276-4.216-5.738c-2.076-1.504-4.411-2.09-6.965-1.839c-0.239,0.023-0.481,0.05-0.726,0.072
			C830.773,47.371,830.755,47.348,830.675,47.299z M843.569,45.232c0.122,0.179,0.186,0.298,0.271,0.399
			c0.482,0.569,1.087,0.961,1.796,1.193c2.018,0.657,3.732-0.114,4.396-1.975c0.044-0.125,0.064-0.258,0.122-0.47
			C847.912,44.486,845.765,44.759,843.569,45.232z"/>
		<path fill="none" stroke="#6D41B5" stroke-miterlimit="10" d="M883.445,96.041c-0.684,0.117-1.276,0.188-1.855,0.326
			c-0.525,0.126-1.048,0.297-1.549,0.503c-0.304,0.125-0.593,0.323-0.842,0.542c-0.674,0.594-0.728,1.436-0.155,2.13
			c0.433,0.527,1.021,0.828,1.641,1.071c1.239,0.486,2.537,0.733,3.858,0.831c1.377,0.103,2.762,0.097,4.135,0.224
			c3.365,0.314,6.515,1.236,9.121,3.503c0.461,0.401,0.853,0.882,1.271,1.33c0.064,0.072,0.111,0.165,0.223,0.328
			c-0.165-0.046-0.246-0.06-0.32-0.09c-1.87-0.791-3.825-1.231-5.842-1.456c-2.255-0.252-4.488-0.092-6.729,0.195
			c-2.392,0.305-4.785,0.586-7.188,0.772c-3.343,0.259-6.519-0.535-9.594-1.764c-5.885-2.352-10.672-6.145-14.603-11.052
			c-0.419-0.524-0.812-1.068-1.216-1.604c-0.063-0.087-0.12-0.183-0.179-0.274c0.021-0.025,0.045-0.05,0.067-0.075
			c0.114,0.078,0.23,0.155,0.348,0.235c3.134,2.162,6.501,3.832,10.223,4.732c3.898,0.942,7.727,0.728,11.462-0.776
			c1.222-0.491,2.475-0.869,3.813-0.8c1.256,0.064,2.453,0.339,3.562,0.945C883.195,95.869,883.281,95.934,883.445,96.041z"/>
		<path fill="none" stroke="#6D41B5" stroke-miterlimit="10" d="M927.006,72.516c-0.045-0.176-0.09-0.352-0.139-0.525
			c-0.769-2.776-3.555-5.208-6.416-5.584c-1.642-0.216-3.234,0.042-4.805,0.511c-1.439,0.431-2.871,0.906-4.332,1.256
			c-1.55,0.372-3.143,0.446-4.734,0.461c-5.134,0.05-10.025-0.939-14.586-3.341c-3.16-1.664-5.887-3.858-8.122-6.642
			c-0.036-0.045-0.084-0.085-0.104-0.137c-0.032-0.085-0.05-0.178-0.07-0.268c0.101,0.018,0.221,0.005,0.298,0.056
			c0.812,0.536,1.593,1.123,2.43,1.618c2.841,1.682,5.915,2.734,9.175,3.268c1.63,0.267,3.271,0.394,4.92,0.393
			c2.895-0.002,5.677-0.616,8.426-1.468c1.479-0.459,2.978-0.896,4.498-1.167c2.407-0.432,4.814-0.322,7.118,0.598
			c3.007,1.199,4.782,3.505,5.782,6.484c0.465,1.387,0.678,2.819,0.752,4.274c0.004,0.067-0.006,0.134-0.011,0.2
			C927.059,72.505,927.032,72.511,927.006,72.516z"/>
		<path fill="none" stroke="#6D41B5" stroke-miterlimit="10" d="M930.993,83.505c-1.021-0.312-2.043-0.438-3.084-0.522
			c-1.641-0.131-3.108,0.265-4.303,1.38c-0.996,0.93-1.915,1.945-2.827,2.96c-1.672,1.866-3.511,3.524-5.738,4.719
			c-2.186,1.17-4.521,1.888-6.952,2.329c-2.196,0.398-4.414,0.564-6.645,0.583c-0.109,0.001-0.221,0-0.341-0.075
			c0.093-0.027,0.183-0.057,0.272-0.082c1.789-0.474,3.354-1.378,4.686-2.624c1.63-1.526,3.176-3.142,4.741-4.733
			c1.359-1.379,2.753-2.717,4.372-3.8c2.144-1.433,4.487-2.271,7.078-2.413c2.25-0.123,4.454,0.079,6.552,0.936
			c0.639,0.259,1.216,0.662,1.812,1.012C930.76,83.258,930.869,83.394,930.993,83.505z"/>
		<path fill="none" stroke="#6D41B5" stroke-miterlimit="10" d="M924.614,78.851c-0.59-0.09-1.11-0.17-1.631-0.25
			c-1.906-0.287-3.817-0.507-5.749-0.458c-1.535,0.039-2.975,0.469-4.31,1.209c-1.153,0.64-2.281,1.331-3.433,1.978
			c-2.318,1.304-4.818,2.063-7.45,2.428c-1.785,0.247-3.578,0.365-5.379,0.334c-2.312-0.039-4.483-0.641-6.55-1.645
			c-0.038-0.018-0.071-0.046-0.089-0.133c0.401,0.056,0.805,0.129,1.21,0.163c1.211,0.099,2.423,0.221,3.638,0.262
			c1.326,0.045,2.582-0.329,3.737-0.94c1.473-0.78,2.906-1.632,4.342-2.482c2.229-1.324,4.545-2.443,7.087-3.051
			c2.09-0.499,4.213-0.708,6.351-0.568c2.95,0.194,5.625,1.196,8.021,2.928c0.037,0.027,0.072,0.057,0.105,0.088
			C924.534,78.729,924.543,78.75,924.614,78.851z"/>
		<path fill="none" stroke="#6D41B5" stroke-miterlimit="10" d="M904.342,58.801c-0.732,0.271-1.457,0.575-2.203,0.805
			c-1.955,0.601-3.962,0.711-5.989,0.555c-5.499-0.423-10.253-2.67-14.544-5.971c-1.384-1.063-2.619-2.312-3.922-3.479
			c-0.098-0.088-0.175-0.2-0.317-0.368c0.733,0,1.382-0.027,2.023,0.005c1.774,0.091,3.527,0.322,5.248,0.791
			c2.653,0.724,4.966,2.076,7.126,3.732c1.188,0.909,2.374,1.82,3.619,2.642c1.755,1.156,3.717,1.647,5.822,1.495
			c1.037-0.075,2.068-0.193,3.104-0.292C904.32,58.745,904.331,58.773,904.342,58.801z"/>
		<path fill="none" stroke="#6D41B5" stroke-miterlimit="10" d="M924.846,87.697c0.104-0.08,0.181-0.148,0.265-0.2
			c1.639-0.989,3.396-1.578,5.334-1.554c2.375,0.028,4.368,0.926,6.025,2.598c0.571,0.575,1.133,1.161,1.709,1.73
			c0.924,0.914,1.944,1.685,3.241,2.001c0.409,0.1,0.832,0.154,1.287,0.236c-0.063,0.073-0.094,0.139-0.146,0.164
			c-2.304,1.143-4.694,1.547-7.209,0.806c-1.149-0.34-2.083-1.043-2.947-1.846c-0.797-0.741-1.57-1.512-2.416-2.193
			c-1.252-1.009-2.73-1.49-4.333-1.603c-0.23-0.017-0.462-0.043-0.692-0.068C924.943,87.767,924.925,87.747,924.846,87.697z"/>
		<path fill="none" stroke="#6D41B5" stroke-miterlimit="10" d="M889.238,107.309c1.21,0.063,2.421,0.113,3.63,0.194
			c1.31,0.088,2.593,0.333,3.85,0.715c2.451,0.745,4.225,2.342,5.617,4.413c0.311,0.46,0.604,0.93,0.906,1.396
			c0.562,0.874,1.308,1.552,2.216,2.06c0.112,0.062,0.217,0.139,0.326,0.208c-0.012,0.035-0.022,0.069-0.031,0.104
			c-0.351-0.025-0.703-0.029-1.049-0.079c-2.474-0.355-4.63-1.369-6.439-3.086c-0.385-0.365-0.718-0.785-1.086-1.169
			c-1.873-1.961-4.016-3.52-6.644-4.341c-0.427-0.134-0.866-0.232-1.3-0.347C889.236,107.354,889.236,107.331,889.238,107.309z"/>
		<path fill="none" stroke="#6D41B5" stroke-miterlimit="10" d="M843.337,44.855c2.194-0.473,4.342-0.746,6.581-0.854
			c-0.054,0.213-0.077,0.346-0.122,0.471c-0.661,1.861-2.376,2.631-4.393,1.975c-0.71-0.231-1.314-0.624-1.796-1.193
			C843.521,45.153,843.457,45.034,843.337,44.855z"/>
	</g>
	<g id="erlang-logo">
		<path id="erlang" fill="none" stroke="#6D41B5" stroke-miterlimit="10" d="M742.326,67.225c-0.696,0.767-1.321,1.503-1.999,2.188
			c-0.877,0.887-1.86,1.635-3.037,2.1c-0.862,0.341-1.75,0.399-2.651,0.238c-1.312-0.235-2.139-1.049-2.603-2.259
			c-0.184-0.472-0.317-0.961-0.509-1.543c-0.14,0.219-0.245,0.377-0.345,0.54c-1.428,2.391-3.17,4.498-5.518,6.046
			c-1.072,0.708-2.217,1.232-3.525,1.359c-1.491,0.145-2.713-0.557-3.262-1.971c-0.482-1.237-0.57-2.528-0.25-3.806
			c0.748-2.979,1.551-5.941,2.325-8.912c0.214-0.82,0.438-1.64,0.595-2.472c0.092-0.478,0.103-0.98,0.07-1.467
			c-0.06-0.87-0.701-1.329-1.562-1.16c-0.817,0.161-1.463,0.634-2.02,1.22c-1.771,1.865-2.902,4.059-3.484,6.573
			c-0.621,2.692-1.238,5.395-2.049,8.034c-1.308,4.264-3.859,7.564-8.005,9.455c-1.535,0.7-3.153,1.032-4.858,0.823
			c-1.75-0.216-2.823-1.205-3.332-2.86c-0.06-0.189-0.125-0.377-0.203-0.613c-0.463,0.7-0.868,1.364-1.324,1.993
			c-1.389,1.914-2.979,3.623-5.063,4.802c-0.869,0.491-1.797,0.822-2.81,0.777c-1.36-0.06-2.309-0.814-3.002-1.922
			c-0.286-0.457-0.514-0.952-0.79-1.476c-0.263,0.393-0.506,0.77-0.761,1.139c-1.629,2.365-3.545,4.431-6.122,5.787
			c-1.521,0.8-3.123,1.232-4.859,0.919c-1.146-0.207-2.09-0.774-2.861-1.638c-0.123-0.139-0.244-0.279-0.369-0.421
			c-0.812,0.842-1.586,1.697-2.42,2.488c-1.737,1.652-3.653,3.04-5.979,3.773c-1.217,0.384-2.455,0.51-3.719,0.293
			c-1.788-0.308-2.857-1.4-3.332-3.104c-0.562-2.009-0.326-4.005,0.153-5.99c0.765-3.163,1.963-6.171,3.267-9.142
			c0.082-0.186,0.157-0.373,0.264-0.623c-1.391,0.31-2.693,0.257-3.961-0.495c-0.093,0.229-0.185,0.438-0.262,0.65
			c-1.433,3.939-2.884,7.871-4.752,11.632c-2.054,4.129-4.476,8.007-7.781,11.267c-3.301,3.251-7.152,5.504-11.78,6.225
			c-4.228,0.657-8.349,0.358-12.133-1.866c-3.813-2.241-6.011-5.669-6.753-9.959c-1.338-7.733,1.526-13.839,7.585-18.571
			c2.974-2.322,6.345-3.844,10.041-4.632c0.132-0.027,0.261-0.068,0.451-0.12c-0.106-0.118-0.184-0.218-0.272-0.301
			c-1.756-1.632-2.537-3.685-2.637-6.041c-0.302-7.199,5.588-11.777,10.822-12.436c2.715-0.341,5.312,0.161,7.397,2.119
			c2.281,2.142,2.801,5.581,1.372,8.551c-0.355,0.743-0.79,1.428-1.479,1.914c-0.521,0.368-1.087,0.54-1.729,0.425
			c-0.562-0.102-0.856-0.38-0.887-0.941c-0.021-0.368-0.021-0.756,0.072-1.109c0.668-2.593-0.32-4.24-2.941-4.855
			c-3.312-0.778-6.939,0.861-8.426,3.807c-1.146,2.272-0.859,5.199,0.77,6.91c0.487,0.513,1.162,0.857,1.781,1.23
			c0.197,0.118,0.491,0.113,0.738,0.104c1.18-0.049,2.344,0.001,3.457,0.444c0.944,0.377,1.444,0.985,1.395,1.679
			c-0.05,0.647-0.646,1.224-1.587,1.45c-1.579,0.383-3.106,0.087-4.592-0.458c-0.47-0.173-0.899-0.194-1.38-0.079
			c-6.265,1.496-11.015,6.542-11.995,12.9c-0.493,3.194-0.104,6.293,1.784,9.027c2.214,3.212,5.35,4.515,9.196,4.217
			c1.635-0.127,3.229-0.429,4.757-1.036c0.127-0.05,0.252-0.101,0.375-0.157c0.021-0.01,0.032-0.048,0.073-0.112
			c-0.207-0.053-0.398-0.1-0.592-0.149c-3.375-0.877-5.294-3.111-5.899-6.479c-0.566-3.136,0.204-5.925,2.405-8.279
			c2.491-2.663,6.959-3.546,10.25-1.988c2.287,1.082,3.476,3.019,4.006,5.401c0.203,0.919,0.274,1.867,0.49,2.93
			c0.022-0.083,0.026-0.181,0.073-0.249c2.968-4.289,5.279-8.896,6.708-13.924c0.083-0.294,0.044-0.677-0.07-0.964
			c-0.721-1.792-1.351-3.608-1.229-5.57c0.043-0.712,0.196-1.467,0.507-2.103c0.831-1.713,2.692-1.759,3.7-0.144
			c0.539,0.863,0.776,1.838,0.716,2.824c-0.077,1.229-0.282,2.455-0.512,3.667c-0.077,0.406,0.021,0.543,0.351,0.676
			c0.869,0.352,1.719,0.262,2.393-0.34c0.639-0.567,1.15-1.277,1.688-1.95c0.229-0.289,0.355-0.656,0.564-0.964
			c0.189-0.277,0.396-0.559,0.65-0.774c0.596-0.508,1.613-0.597,2.201-0.236c0.545,0.333,0.862,1.086,0.586,1.908
			c-0.404,1.199-0.898,2.376-1.445,3.519c-1.084,2.263-1.987,4.578-2.316,7.079c-0.19,1.447-0.348,2.901-0.062,4.358
			c0.51,2.598,2.229,3.628,4.75,2.848c1.604-0.496,2.74-1.592,3.729-2.878c0.073-0.099,0.095-0.288,0.062-0.416
			c-0.742-2.879-0.732-5.803-0.306-8.704c1.703-11.502,6.099-21.95,12.562-31.562c1.111-1.651,2.396-3.174,3.879-4.512
			c0.824-0.743,1.703-1.412,2.773-1.77c1.508-0.504,2.661-0.036,3.205,1.446c0.311,0.846,0.481,1.773,0.535,2.676
			c0.158,2.639-0.33,5.215-1.04,7.739c-2.44,8.679-6.825,16.271-12.915,22.894c-0.884,0.961-1.857,1.84-2.767,2.781
			c-0.193,0.202-0.359,0.494-0.405,0.767c-0.326,1.92-0.48,3.847,0.018,5.763c0.678,2.598,2.564,3.346,4.84,1.928
			c1.455-0.907,2.543-2.186,3.539-3.553c0.22-0.303,0.405-0.629,0.634-0.926c1.103-1.441,1.52-3.138,1.938-4.864
			c1.082-4.467,2.861-8.629,5.74-12.26c1.429-1.801,3.065-3.364,5.203-4.319c0.955-0.426,1.948-0.57,2.983-0.456
			c1.101,0.121,1.606,0.476,2.459,1.742c0.103-0.341,0.228-0.641,0.276-0.952c0.181-1.106,0.949-1.7,1.876-2.107
			c0.868-0.381,1.772-0.678,2.67-0.99c0.646-0.225,0.973,0.057,0.807,0.731c-0.625,2.554-1.279,5.1-1.916,7.65
			c-0.816,3.275-1.668,6.543-2.412,9.835c-0.202,0.903-0.19,1.896-0.069,2.821c0.137,1.057,0.774,1.369,1.819,1.107
			c0.817-0.205,1.479-0.674,2.031-1.294c1.286-1.438,2.07-3.162,2.572-4.983c1.014-3.679,1.921-7.387,2.872-11.083
			c0.403-1.577,0.81-3.154,1.213-4.732c0.365-1.431,1.17-2.456,2.614-2.939c0.737-0.247,1.444-0.588,2.186-0.84
			c0.209-0.071,0.556-0.061,0.692,0.068c0.133,0.123,0.148,0.465,0.099,0.682c-0.223,0.906-0.487,1.8-0.737,2.699
			c-0.033,0.126-0.058,0.255-0.003,0.423c0.095-0.132,0.188-0.262,0.278-0.396c1.382-2.026,3.062-3.722,5.298-4.804
			c0.787-0.381,1.604-0.652,2.494-0.62c1.711,0.062,2.713,0.995,2.982,2.687c0.21,1.316-0.065,2.573-0.386,3.822
			c-0.756,2.975-1.573,5.934-2.309,8.914c-0.203,0.829-0.279,1.712-0.263,2.568c0.021,1.194,0.835,1.69,1.87,1.092
			c2.405-1.394,4.278-3.24,4.877-6.121c0.983-4.76,2.614-9.271,5.369-13.321c1.338-1.97,2.892-3.734,4.979-4.954
			c1.175-0.686,2.431-1.039,3.802-0.886c1.129,0.125,2.039,0.607,2.618,1.621c0.058,0.102,0.121,0.2,0.188,0.299
			c0.006,0.009,0.028,0.006,0.084,0.015c0.209-0.649,0.368-1.329,0.647-1.954c0.187-0.412,0.465-0.906,0.838-1.086
			c1.14-0.551,2.332-1.001,3.527-1.419c0.52-0.182,0.856,0.27,0.706,0.89c-0.237,0.971-0.511,1.935-0.768,2.901
			c-1.998,7.577-3.942,15.168-6.012,22.727c-0.972,3.546-2.176,7.028-3.271,10.54c-0.029,0.093-0.048,0.188-0.078,0.323
			c2.1,0.064,4.133-0.127,6.135-0.636c3.096-0.786,5.547-2.487,7.303-5.172c0.213-0.325,0.449-0.643,0.719-0.921
			c0.412-0.428,0.902-0.521,1.23-0.286c0.34,0.243,0.424,0.78,0.162,1.306c-0.648,1.298-1.451,2.493-2.445,3.555
			c-2.508,2.675-5.641,4.158-9.221,4.675c-1.588,0.229-3.213,0.229-4.822,0.288c-0.332,0.012-0.469,0.111-0.609,0.381
			c-2.453,4.688-5.674,8.739-9.993,11.85c-3.943,2.839-8.345,4.491-13.185,4.961c-3.514,0.341-6.987,0.182-10.392-0.83
			c-1.776-0.528-3.438-1.298-4.78-2.611c-2.385-2.332-2.654-5.134-1.646-8.137c0.794-2.365,2.449-4.081,4.468-5.468
			c2.721-1.868,5.776-2.897,8.981-3.545c3.521-0.712,7.084-0.81,10.649-0.598c2.964,0.176,5.921,0.496,8.88,0.752
			c0.998,0.086,1.998,0.157,2.993,0.264c0.354,0.038,0.515-0.083,0.617-0.415c0.795-2.541,1.609-5.074,2.406-7.614
			c0.363-1.166,0.699-2.341,1.046-3.512C742.279,67.504,742.292,67.394,742.326,67.225z M737.407,81.924
			c-0.861-0.064-1.634-0.11-2.404-0.183c-4.246-0.396-8.5-0.633-12.766-0.571c-2.212,0.032-4.406,0.255-6.536,0.901
			c-3.501,1.062-6.04,3.203-6.18,7.145c-0.062,1.73,0.37,3.303,1.605,4.575c1.423,1.466,3.241,2.121,5.214,2.253
			c4.56,0.305,8.752-0.832,12.508-3.461c3.625-2.538,6.179-5.975,8.179-9.863C737.146,82.485,737.255,82.244,737.407,81.924z
			 M672.938,73.463c0.071,0.034,0.145,0.068,0.216,0.103c0.028-0.062,0.046-0.136,0.089-0.187
			c5.236-6.225,9.286-13.121,11.756-20.899c0.658-2.073,1.196-4.185,1.153-6.385c-0.013-0.562-0.134-1.147-0.33-1.676
			c-0.206-0.549-0.739-0.678-1.218-0.333c-0.381,0.274-0.773,0.593-1.019,0.981c-0.995,1.596-2.044,3.172-2.876,4.853
			c-2.816,5.689-4.91,11.654-6.495,17.796C673.725,69.615,673.359,71.546,672.938,73.463z M736.366,62.762
			c0.093,0.381,0.209,1.156,0.476,1.875c0.243,0.656,0.818,0.965,1.545,0.944c1.106-0.031,1.976-0.57,2.734-1.307
			c1.309-1.266,2.225-2.814,2.807-4.502c0.853-2.465,1.545-4.985,2.278-7.489c0.276-0.943,0.513-1.903,0.342-2.907
			c-0.284-1.7-1.556-2.413-3.098-1.636c-0.684,0.344-1.32,0.848-1.852,1.401c-1.5,1.567-2.482,3.471-3.314,5.452
			C737.241,57.081,736.499,59.645,736.366,62.762z M688.432,76.216c0.091,0.402,0.185,1.201,0.449,1.938
			c0.323,0.894,1.081,1.228,2.016,1.054c0.812-0.15,1.498-0.545,2.097-1.093c1.511-1.387,2.562-3.087,3.161-5.029
			c0.688-2.234,1.281-4.499,1.87-6.763c0.301-1.161,0.377-2.35-0.062-3.509c-0.424-1.118-1.302-1.532-2.445-1.176
			c-0.836,0.261-1.491,0.794-2.082,1.414c-1.315,1.386-2.224,3.034-2.979,4.769C689.337,70.373,688.581,73.018,688.432,76.216z
			 M629.896,89.095c0.058,0.444,0.101,1.108,0.23,1.754c0.699,3.43,3.324,5.255,7.239,3.914c0.119-0.041,0.237-0.133,0.317-0.231
			c1.716-2.114,2.785-4.433,2.468-7.256c-0.418-3.7-4.216-5.662-7.438-3.778C630.669,84.694,629.979,86.63,629.896,89.095z"/>
	</g>
	<g id="elixir-logo">
		<path fill="none" stroke="#6D41B5" stroke-miterlimit="10" d="M344.147,99.208c24.345-4.923,19-25.439,17.108-31.605
			s-8.975-15.202-15.081-21.923c-3.731-4.107-8.857-13.727-6.944-24.441c1.246-6.977-34.168,32.357-26.626,57.802
			C318.158,97.775,329.853,102.1,344.147,99.208z"/>
		<path fill="none" stroke="#6D41B5" stroke-miterlimit="10" d="M312.944,79.936c0,0,23.592,22.083,49.507-7.962"/>
		<path fill="none" stroke="#6D41B5" stroke-miterlimit="10" d="M312.617,63.851c0,0,22.177,22.909,47.627,1.382"/>
		<path fill="none" stroke="#6D41B5" stroke-miterlimit="10" d="M324.487,36.578c0,0-7.041,54.759,32.189,56.866"/>
		<path fill="none" stroke="#6D41B5" stroke-miterlimit="10" d="M315.46,53.788c0,0-6.682,45.156,34.596,43.561"/>
		<path fill="none" stroke="#6D41B5" stroke-miterlimit="10" d="M341.478,38.681c0,0-13.348,16.938-13.348,32.385"/>
	</g>
	<g id="browser">
		<path fill="none" stroke="#979797" stroke-miterlimit="10" d="M36.293,41.461c0-0.276,0.225-0.5,0.502-0.5h98.449
			c0.277,0,0.502,0.225,0.502,0.5v66.053c0,0.276-0.225,0.5-0.502,0.5H36.795c-0.277,0-0.502-0.224-0.502-0.5V41.461z"/>
		<line fill="none" stroke="#979797" stroke-miterlimit="10" x1="135.746" y1="48.08" x2="36.293" y2="48.08"/>
		<ellipse fill="none" stroke="#979797" stroke-miterlimit="10" cx="40.395" cy="44.614" rx="1.509" ry="1.502"/>
		<ellipse fill="none" stroke="#979797" stroke-miterlimit="10" cx="45.009" cy="44.614" rx="1.509" ry="1.502"/>
		<ellipse fill="none" stroke="#979797" stroke-miterlimit="10" cx="49.623" cy="44.614" rx="1.508" ry="1.502"/>
		<line fill="none" stroke="#979797" stroke-miterlimit="10" x1="84.73" y1="48.491" x2="84.73" y2="107.837"/>
		<g>
			<g>
				
					<line fill="none" stroke="#6D41B5" stroke-linecap="round" stroke-linejoin="round" stroke-miterlimit="10" x1="38.886" y1="53.5" x2="44.214" y2="53.5"/>
				
					<line fill="none" stroke="#6D41B5" stroke-linecap="round" stroke-linejoin="round" stroke-miterlimit="10" x1="45.452" y1="53.5" x2="54.88" y2="53.5"/>
			</g>
			<g>
				
					<line fill="none" stroke="#6D41B5" stroke-linecap="round" stroke-linejoin="round" stroke-miterlimit="10" x1="38.886" y1="67.5" x2="44.214" y2="67.5"/>
			</g>
			<g>
				
					<line fill="none" stroke="#6D41B5" stroke-linecap="round" stroke-linejoin="round" stroke-miterlimit="10" x1="38.886" y1="57" x2="48.115" y2="57"/>
				
					<line fill="none" stroke="#6D41B5" stroke-linecap="round" stroke-linejoin="round" stroke-miterlimit="10" x1="49.452" y1="57" x2="58.88" y2="57"/>
				
					<line fill="none" stroke="#6D41B5" stroke-linecap="round" stroke-linejoin="round" stroke-miterlimit="10" x1="60.619" y1="57" x2="67.714" y2="57"/>
			</g>
			<g>
				
					<line fill="none" stroke="#6D41B5" stroke-linecap="round" stroke-linejoin="round" stroke-miterlimit="10" x1="38.886" y1="64.167" x2="51.85" y2="64.167"/>
				
					<line fill="none" stroke="#6D41B5" stroke-linecap="round" stroke-linejoin="round" stroke-miterlimit="10" x1="53.728" y1="64.167" x2="66.972" y2="64.167"/>
				
					<line fill="none" stroke="#6D41B5" stroke-linecap="round" stroke-linejoin="round" stroke-miterlimit="10" x1="69.414" y1="64.167" x2="79.38" y2="64.167"/>
			</g>
			<g>
				
					<line fill="none" stroke="#6D41B5" stroke-linecap="round" stroke-linejoin="round" stroke-miterlimit="10" x1="67.714" y1="60.5" x2="58.485" y2="60.5"/>
				
					<line fill="none" stroke="#6D41B5" stroke-linecap="round" stroke-linejoin="round" stroke-miterlimit="10" x1="57.148" y1="60.5" x2="47.72" y2="60.5"/>
				
					<line fill="none" stroke="#6D41B5" stroke-linecap="round" stroke-linejoin="round" stroke-miterlimit="10" x1="45.981" y1="60.5" x2="38.886" y2="60.5"/>
			</g>
			<g>
				
					<line fill="none" stroke="#6D41B5" stroke-linecap="round" stroke-linejoin="round" stroke-miterlimit="10" x1="38.886" y1="71.167" x2="44.214" y2="71.167"/>
				
					<line fill="none" stroke="#6D41B5" stroke-linecap="round" stroke-linejoin="round" stroke-miterlimit="10" x1="45.452" y1="71.167" x2="54.88" y2="71.167"/>
			</g>
			<g>
				
					<line fill="none" stroke="#6D41B5" stroke-linecap="round" stroke-linejoin="round" stroke-miterlimit="10" x1="38.886" y1="85.167" x2="44.214" y2="85.167"/>
			</g>
			<g>
				
					<line fill="none" stroke="#6D41B5" stroke-linecap="round" stroke-linejoin="round" stroke-miterlimit="10" x1="38.886" y1="74.667" x2="48.115" y2="74.667"/>
				
					<line fill="none" stroke="#6D41B5" stroke-linecap="round" stroke-linejoin="round" stroke-miterlimit="10" x1="49.452" y1="74.667" x2="58.88" y2="74.667"/>
				
					<line fill="none" stroke="#6D41B5" stroke-linecap="round" stroke-linejoin="round" stroke-miterlimit="10" x1="60.619" y1="74.667" x2="67.714" y2="74.667"/>
			</g>
			<g>
				
					<line fill="none" stroke="#6D41B5" stroke-linecap="round" stroke-linejoin="round" stroke-miterlimit="10" x1="38.886" y1="81.834" x2="51.85" y2="81.834"/>
				
					<line fill="none" stroke="#6D41B5" stroke-linecap="round" stroke-linejoin="round" stroke-miterlimit="10" x1="53.728" y1="81.834" x2="66.972" y2="81.834"/>
				
					<line fill="none" stroke="#6D41B5" stroke-linecap="round" stroke-linejoin="round" stroke-miterlimit="10" x1="69.414" y1="81.834" x2="79.38" y2="81.834"/>
			</g>
			<g>
				
					<line fill="none" stroke="#6D41B5" stroke-linecap="round" stroke-linejoin="round" stroke-miterlimit="10" x1="67.714" y1="78.167" x2="58.485" y2="78.167"/>
				
					<line fill="none" stroke="#6D41B5" stroke-linecap="round" stroke-linejoin="round" stroke-miterlimit="10" x1="57.148" y1="78.167" x2="47.72" y2="78.167"/>
				
					<line fill="none" stroke="#6D41B5" stroke-linecap="round" stroke-linejoin="round" stroke-miterlimit="10" x1="45.981" y1="78.167" x2="38.886" y2="78.167"/>
			</g>
			<g>
				
					<line fill="none" stroke="#6D41B5" stroke-linecap="round" stroke-linejoin="round" stroke-miterlimit="10" x1="38.886" y1="88.334" x2="44.214" y2="88.334"/>
				
					<line fill="none" stroke="#6D41B5" stroke-linecap="round" stroke-linejoin="round" stroke-miterlimit="10" x1="45.452" y1="88.334" x2="54.88" y2="88.334"/>
			</g>
			<g>
				
					<line fill="none" stroke="#6D41B5" stroke-linecap="round" stroke-linejoin="round" stroke-miterlimit="10" x1="38.886" y1="102.334" x2="44.214" y2="102.334"/>
			</g>
			<g>
				
					<line fill="none" stroke="#6D41B5" stroke-linecap="round" stroke-linejoin="round" stroke-miterlimit="10" x1="38.886" y1="91.834" x2="48.115" y2="91.834"/>
				
					<line fill="none" stroke="#6D41B5" stroke-linecap="round" stroke-linejoin="round" stroke-miterlimit="10" x1="49.452" y1="91.834" x2="58.88" y2="91.834"/>
				
					<line fill="none" stroke="#6D41B5" stroke-linecap="round" stroke-linejoin="round" stroke-miterlimit="10" x1="60.619" y1="91.834" x2="67.714" y2="91.834"/>
			</g>
			<g>
				
					<line fill="none" stroke="#6D41B5" stroke-linecap="round" stroke-linejoin="round" stroke-miterlimit="10" x1="38.886" y1="99.001" x2="51.85" y2="99.001"/>
				
					<line fill="none" stroke="#6D41B5" stroke-linecap="round" stroke-linejoin="round" stroke-miterlimit="10" x1="53.728" y1="99.001" x2="66.972" y2="99.001"/>
				
					<line fill="none" stroke="#6D41B5" stroke-linecap="round" stroke-linejoin="round" stroke-miterlimit="10" x1="69.414" y1="99.001" x2="79.38" y2="99.001"/>
			</g>
			<g>
				
					<line fill="none" stroke="#6D41B5" stroke-linecap="round" stroke-linejoin="round" stroke-miterlimit="10" x1="67.714" y1="95.334" x2="58.485" y2="95.334"/>
				
					<line fill="none" stroke="#6D41B5" stroke-linecap="round" stroke-linejoin="round" stroke-miterlimit="10" x1="57.148" y1="95.334" x2="47.72" y2="95.334"/>
				
					<line fill="none" stroke="#6D41B5" stroke-linecap="round" stroke-linejoin="round" stroke-miterlimit="10" x1="45.981" y1="95.334" x2="38.886" y2="95.334"/>
			</g>
			<g>
				
					<line fill="none" stroke="#6D41B5" stroke-linecap="round" stroke-linejoin="round" stroke-miterlimit="10" x1="89.053" y1="53.5" x2="94.38" y2="53.5"/>
				
					<line fill="none" stroke="#6D41B5" stroke-linecap="round" stroke-linejoin="round" stroke-miterlimit="10" x1="95.618" y1="53.5" x2="105.047" y2="53.5"/>
			</g>
			<g>
				
					<line fill="none" stroke="#6D41B5" stroke-linecap="round" stroke-linejoin="round" stroke-miterlimit="10" x1="89.053" y1="67.5" x2="94.38" y2="67.5"/>
			</g>
			<g>
				
					<line fill="none" stroke="#6D41B5" stroke-linecap="round" stroke-linejoin="round" stroke-miterlimit="10" x1="89.053" y1="57" x2="98.282" y2="57"/>
				
					<line fill="none" stroke="#6D41B5" stroke-linecap="round" stroke-linejoin="round" stroke-miterlimit="10" x1="99.618" y1="57" x2="109.047" y2="57"/>
				
					<line fill="none" stroke="#6D41B5" stroke-linecap="round" stroke-linejoin="round" stroke-miterlimit="10" x1="110.785" y1="57" x2="117.88" y2="57"/>
			</g>
			<g>
				
					<line fill="none" stroke="#6D41B5" stroke-linecap="round" stroke-linejoin="round" stroke-miterlimit="10" x1="89.053" y1="64.167" x2="102.017" y2="64.167"/>
				
					<line fill="none" stroke="#6D41B5" stroke-linecap="round" stroke-linejoin="round" stroke-miterlimit="10" x1="103.894" y1="64.167" x2="117.139" y2="64.167"/>
				
					<line fill="none" stroke="#6D41B5" stroke-linecap="round" stroke-linejoin="round" stroke-miterlimit="10" x1="119.58" y1="64.167" x2="129.547" y2="64.167"/>
			</g>
			<g>
				
					<line fill="none" stroke="#6D41B5" stroke-linecap="round" stroke-linejoin="round" stroke-miterlimit="10" x1="117.88" y1="60.5" x2="108.651" y2="60.5"/>
				
					<line fill="none" stroke="#6D41B5" stroke-linecap="round" stroke-linejoin="round" stroke-miterlimit="10" x1="107.315" y1="60.5" x2="97.886" y2="60.5"/>
				
					<line fill="none" stroke="#6D41B5" stroke-linecap="round" stroke-linejoin="round" stroke-miterlimit="10" x1="96.148" y1="60.5" x2="89.053" y2="60.5"/>
			</g>
			<g>
				
					<line fill="none" stroke="#6D41B5" stroke-linecap="round" stroke-linejoin="round" stroke-miterlimit="10" x1="89.053" y1="71.167" x2="94.38" y2="71.167"/>
				
					<line fill="none" stroke="#6D41B5" stroke-linecap="round" stroke-linejoin="round" stroke-miterlimit="10" x1="95.618" y1="71.167" x2="105.047" y2="71.167"/>
			</g>
			<g>
				
					<line fill="none" stroke="#6D41B5" stroke-linecap="round" stroke-linejoin="round" stroke-miterlimit="10" x1="89.053" y1="85.167" x2="94.38" y2="85.167"/>
			</g>
			<g>
				
					<line fill="none" stroke="#6D41B5" stroke-linecap="round" stroke-linejoin="round" stroke-miterlimit="10" x1="89.053" y1="74.667" x2="98.282" y2="74.667"/>
				
					<line fill="none" stroke="#6D41B5" stroke-linecap="round" stroke-linejoin="round" stroke-miterlimit="10" x1="99.618" y1="74.667" x2="109.047" y2="74.667"/>
				
					<line fill="none" stroke="#6D41B5" stroke-linecap="round" stroke-linejoin="round" stroke-miterlimit="10" x1="110.785" y1="74.667" x2="117.88" y2="74.667"/>
			</g>
			<g>
				
					<line fill="none" stroke="#6D41B5" stroke-linecap="round" stroke-linejoin="round" stroke-miterlimit="10" x1="89.053" y1="81.834" x2="102.017" y2="81.834"/>
				
					<line fill="none" stroke="#6D41B5" stroke-linecap="round" stroke-linejoin="round" stroke-miterlimit="10" x1="103.894" y1="81.834" x2="117.139" y2="81.834"/>
				
					<line fill="none" stroke="#6D41B5" stroke-linecap="round" stroke-linejoin="round" stroke-miterlimit="10" x1="119.58" y1="81.834" x2="129.547" y2="81.834"/>
			</g>
			<g>
				
					<line fill="none" stroke="#6D41B5" stroke-linecap="round" stroke-linejoin="round" stroke-miterlimit="10" x1="117.88" y1="78.167" x2="108.651" y2="78.167"/>
				
					<line fill="none" stroke="#6D41B5" stroke-linecap="round" stroke-linejoin="round" stroke-miterlimit="10" x1="107.315" y1="78.167" x2="97.886" y2="78.167"/>
				
					<line fill="none" stroke="#6D41B5" stroke-linecap="round" stroke-linejoin="round" stroke-miterlimit="10" x1="96.148" y1="78.167" x2="89.053" y2="78.167"/>
			</g>
			<g>
				
					<line fill="none" stroke="#6D41B5" stroke-linecap="round" stroke-linejoin="round" stroke-miterlimit="10" x1="89.053" y1="88.334" x2="94.38" y2="88.334"/>
				
					<line fill="none" stroke="#6D41B5" stroke-linecap="round" stroke-linejoin="round" stroke-miterlimit="10" x1="95.618" y1="88.334" x2="105.047" y2="88.334"/>
			</g>
			<g>
				
					<line fill="none" stroke="#6D41B5" stroke-linecap="round" stroke-linejoin="round" stroke-miterlimit="10" x1="89.053" y1="102.334" x2="94.38" y2="102.334"/>
			</g>
			<g>
				
					<line fill="none" stroke="#6D41B5" stroke-linecap="round" stroke-linejoin="round" stroke-miterlimit="10" x1="89.053" y1="91.834" x2="98.282" y2="91.834"/>
				
					<line fill="none" stroke="#6D41B5" stroke-linecap="round" stroke-linejoin="round" stroke-miterlimit="10" x1="99.618" y1="91.834" x2="109.047" y2="91.834"/>
				
					<line fill="none" stroke="#6D41B5" stroke-linecap="round" stroke-linejoin="round" stroke-miterlimit="10" x1="110.785" y1="91.834" x2="117.88" y2="91.834"/>
			</g>
			<g>
				
					<line fill="none" stroke="#6D41B5" stroke-linecap="round" stroke-linejoin="round" stroke-miterlimit="10" x1="89.053" y1="99.001" x2="102.017" y2="99.001"/>
				
					<line fill="none" stroke="#6D41B5" stroke-linecap="round" stroke-linejoin="round" stroke-miterlimit="10" x1="103.894" y1="99.001" x2="117.139" y2="99.001"/>
				
					<line fill="none" stroke="#6D41B5" stroke-linecap="round" stroke-linejoin="round" stroke-miterlimit="10" x1="119.58" y1="99.001" x2="129.547" y2="99.001"/>
			</g>
			<g>
				
					<line fill="none" stroke="#6D41B5" stroke-linecap="round" stroke-linejoin="round" stroke-miterlimit="10" x1="117.88" y1="95.334" x2="108.651" y2="95.334"/>
				
					<line fill="none" stroke="#6D41B5" stroke-linecap="round" stroke-linejoin="round" stroke-miterlimit="10" x1="107.315" y1="95.334" x2="97.886" y2="95.334"/>
				
					<line fill="none" stroke="#6D41B5" stroke-linecap="round" stroke-linejoin="round" stroke-miterlimit="10" x1="96.148" y1="95.334" x2="89.053" y2="95.334"/>
			</g>
		</g>
	</g>
	<g id="phone">
		<path fill="none" stroke="#979797" stroke-miterlimit="10" d="M191.922,321.918c0,1.254-1.017,2.271-2.27,2.271h-37.261
			c-1.253,0-2.27-1.018-2.27-2.271v-67.524c0-1.252,1.016-2.269,2.27-2.269h37.261c1.253,0,2.27,1.017,2.27,2.269V321.918z"/>
		<path fill="none" stroke="#6D41B5" stroke-miterlimit="10" d="M186.526,310.883c0,1.252-1.018,2.271-2.271,2.271h-25.534
			c-1.253,0-2.27-1.02-2.27-2.271v-49.367c0-1.252,1.017-2.27,2.27-2.27h25.534c1.253,0,2.271,1.018,2.271,2.27V310.883z"/>
		<circle fill="none" stroke="#485E69" stroke-miterlimit="10" cx="171.288" cy="318.398" r="2.175"/>
	</g>
	<g id="monitor">
		<g>
			<g>
				<g>
					<defs>
						<rect id="SVGID_1_" x="819.597" y="255.29" width="91.796" height="53.812"/>
					</defs>
					<clipPath id="SVGID_2_">
						<use xlink:href="#SVGID_1_"  overflow="visible"/>
					</clipPath>
					<g clip-path="url(#SVGID_2_)">
						
							<rect x="819.597" y="255.29" fill="none" stroke="#6D41B5" stroke-width="2" stroke-miterlimit="10" width="91.796" height="53.812"/>
					</g>
				</g>
			</g>
		</g>
		
			<line fill="none" stroke="#979797" stroke-linecap="square" stroke-miterlimit="10" x1="842.941" y1="313.454" x2="888.075" y2="313.454"/>
		
			<line fill="none" stroke="#979797" stroke-linecap="square" stroke-miterlimit="10" x1="896.752" y1="318.202" x2="834.779" y2="318.202"/>
		
			<line fill="none" stroke="#6D41B5" stroke-linecap="square" stroke-miterlimit="10" x1="911.011" y1="296.836" x2="820.535" y2="296.836"/>
	</g>
	<g id="chat">
		<g>
			<g>
				<g>
					<defs>
						<polygon id="SVGID_3_" points="706.952,229.692 740.553,229.692 740.553,242.293 742.654,242.293 742.654,227.593 
							704.854,227.593 704.854,256.993 719.553,256.993 719.553,254.895 706.952,254.895 						"/>
					</defs>
					<clipPath id="SVGID_4_">
						<use xlink:href="#SVGID_3_"  overflow="visible"/>
					</clipPath>
					<g clip-path="url(#SVGID_4_)">
						<rect x="700.895" y="223.637" fill="#979797" width="45.718" height="37.312"/>
					</g>
				</g>
			</g>
		</g>
		<path fill="#6D41B5" d="M757.354,271.695h-6.301v7.167l-7.22-7.167h-20.081v-25.201h33.602V271.695z M721.652,244.394v29.401
			h21.342l8.399,8.398h1.761v-8.398h6.3v-29.401H721.652z"/>
	</g>
	<g id="hex">
		<line fill="none" stroke="#6D41B5" stroke-miterlimit="10" x1="62.798" y1="141.099" x2="102.165" y2="208.978"/>
		<line fill="none" stroke="#6D41B5" stroke-miterlimit="10" x1="43.114" y1="175.039" x2="121.849" y2="175.039"/>
		<line fill="none" stroke="#6D41B5" stroke-miterlimit="10" x1="102.165" y1="141.099" x2="62.798" y2="208.978"/>
		<path fill="none" stroke="#6D41B5" stroke-miterlimit="10" d="M102.165,141.099H62.798l-19.684,33.939l19.684,33.939h39.367
			l19.684-33.939L102.165,141.099z"/>
		<polygon fill="#FFFFFF" stroke="#6D41B5" stroke-miterlimit="10" points="92.265,191.908 72.698,191.908 62.914,175.038 
			72.698,158.168 92.265,158.168 102.049,175.038 		"/>
	</g>
</g>
<g id="alchemist-emblem">
	<path id="glass-white" fill="#FFFFFF" d="M509.834,158.514c0-0.482-0.318-0.817-0.605-0.817h-52.573
		c-0.288,0-0.606,0.335-0.606,0.817V213l-50.162,26.133v105.563l77.587,40.416l77.589-40.416V239.133l-51.229-26.687
		L509.834,158.514L509.834,158.514z"/>
	<g id="glass-blue">
		<path fill="#C7EBF9" d="M405.887,353.969l77.587,40.416l77.589-40.416V248.405l-51.229-26.687v-53.931
			c0-0.481-0.319-0.816-0.606-0.816h-52.571c-0.288,0-0.606,0.335-0.606,0.816v54.488l-50.162,26.13V353.969L405.887,353.969z"/>
	</g>
	<path id="bottle-outside" fill="#302D35" d="M524.672,203.445v-44.931c0-0.449-0.021-0.892-0.06-1.331h20.299v-14.838H422.038
		v14.838h19.231c-0.035,0.438-0.059,0.881-0.059,1.331v45.487l-50.162,26.131v123.562l92.423,48.146l92.426-48.146V230.132
		L524.672,203.445z M561.062,344.694l-77.589,40.416l-77.587-40.416V239.133l50.162-26.132v-54.487c0-0.482,0.319-0.817,0.606-0.817
		h52.571c0.289,0,0.606,0.335,0.606,0.817v53.932l51.229,26.687L561.062,344.694L561.062,344.694z"/>
	<polygon id="bottle-inside" fill="#302D35" points="483.474,369.139 422.099,337.256 422.099,242.259 437.041,242.259 
		437.041,328.215 483.474,352.338 529.909,328.215 529.909,242.259 544.85,242.259 544.85,332.198 544.85,337.256 542.18,338.641 	
		"/>
	<g id="pinas">
		<polygon id="sun" fill="#6E41B5" points="479.366,262.032 473.327,256.424 475.167,248.39 483.044,245.968 489.078,251.577 
			487.241,259.607 		"/>
		<polygon id="star3" fill="#6E41B5" points="486.611,279.235 483.306,276.167 484.314,271.773 488.623,270.446 491.926,273.515 
			490.92,277.909 		"/>
		<polygon id="star1" fill="#6E41B5" points="456.014,244.745 460.346,243.499 463.593,246.628 462.507,251.002 458.174,252.25 
			454.93,249.12 		"/>
		<polygon id="star2" fill="#6E41B5" points="499.938,234.516 499.096,238.945 494.838,240.43 491.424,237.483 492.266,233.053 
			496.521,231.574 		"/>
	</g>
	<polygon id="clipglass" fill="#FFFFFF" points="529.909,328.215 529.909,289.235 437.041,289.235 437.041,328.215 483.474,352.338 
			"/>
	<path id="chem2" fill="#A486E2" d="M552.607,327.442c-13.324-28.984-47.939-41.797-76.926-28.475l-40.379,18.562
		c-28.984,13.326-41.797,47.939-28.473,76.926l18.562,40.377c13.324,28.982,47.94,41.797,76.926,28.473l40.38-18.561
		c28.983-13.324,41.797-47.939,28.473-76.924L552.607,327.442z"/>
	<path id="chem1" fill="#6E41B5" d="M414.393,327.442c13.324-28.984,47.94-41.797,76.926-28.475l40.379,18.562
		c28.984,13.324,41.797,47.939,28.474,76.926l-18.562,40.377c-13.324,28.982-47.94,41.797-76.926,28.473l-40.38-18.561
		c-28.984-13.324-41.797-47.939-28.473-76.924L414.393,327.442z"/>
</g>
</svg>
