<svg version="1.1" id="alchemists-svg-logo" xmlns="http://www.w3.org/2000/svg" xmlns:xlink="http://www.w3.org/1999/xlink"
	 x="0px" y="0px" width="967px" height="690px" viewBox="-404.5 -242.5 967 690" enable-background="new -404.5 -242.5 967 690"
	 xml:space="preserve">
<g>
	<g id="lines-feature">
		
			<polyline fill="none" stroke="#979797" stroke-width="4" stroke-linecap="round" stroke-miterlimit="10" stroke-dasharray="1,8" points="
			63.928,237.051 -46.396,237.051 -46.396,107.082 -124.077,29.402 -290.546,29.402 -309.185,10.763 		"/>
		
			<polyline fill="none" stroke="#979797" stroke-width="4" stroke-linecap="round" stroke-miterlimit="10" stroke-dasharray="1,8" points="
			108.644,148.281 218.968,148.281 218.968,107.082 296.648,29.402 463.117,29.402 481.756,10.763 		"/>
		
			<polyline fill="none" stroke="#6D41B5" stroke-width="4" stroke-linecap="round" stroke-miterlimit="10" stroke-dasharray="1,8" points="
			-30.502,257.316 -92.923,258.775 -92.923,167.626 -146.428,111.648 -223.975,111.648 -223.975,149.144 		"/>
		
			<polyline fill="none" stroke="#6D41B5" stroke-width="4" stroke-linecap="round" stroke-miterlimit="10" stroke-dasharray="1,8" points="
			-28.836,7.051 6.017,26.977 6.017,60.833 		"/>
		
			<polyline fill="none" stroke="#6D41B5" stroke-width="4" stroke-linecap="round" stroke-miterlimit="10" stroke-dasharray="1,8" points="
			201.287,7.961 166.434,27.887 166.434,61.743 		"/>
		
			<polyline fill="none" stroke="#6D41B5" stroke-width="4" stroke-linecap="round" stroke-miterlimit="10" stroke-dasharray="1,8" points="
			189.818,217.696 248.007,217.696 251.78,138.758 312.427,79.137 470.934,79.137 470.934,149.777 		"/>
		
			<polyline fill="none" stroke="#979797" stroke-width="4" stroke-linecap="round" stroke-miterlimit="10" stroke-dasharray="1,8" points="
			224.285,249.375 336.655,249.375 336.655,182.11 		"/>
		
			<polyline fill="none" stroke="#979797" stroke-width="4" stroke-linecap="round" stroke-miterlimit="10" stroke-dasharray="1,8" points="
			-266.771,69.001 -139.658,69.001 -70.617,132.321 -70.617,153.938 		"/>
	</g>
	<g id="phoenix">
		<path fill="none" stroke="#6D41B5" stroke-miterlimit="10" d="M435.468-50.829c0.281-0.207,0.526-0.398,0.782-0.574
			c3.191-2.184,6.717-3.617,10.45-4.576c2.203-0.566,4.44-0.932,6.707-1.124c2.051-0.172,4.104-0.263,6.158-0.116
			c4.192,0.299,8.088,1.518,11.656,3.747c2.926,1.828,5.467,4.107,7.759,6.654c2.222,2.469,4.36,5.014,6.533,7.525
			c2.139,2.472,4.343,4.876,6.89,6.948c3.081,2.507,6.505,4.33,10.429,5.15c1.48,0.31,2.975,0.478,4.484,0.52
			c0.124,0.003,0.247,0.001,0.475,0.001c-0.143,0.112-0.193,0.168-0.256,0.2c-2.049,1.014-4.141,1.915-6.402,2.361
			c-1.234,0.244-2.47,0.146-3.705,0c-2.956-0.349-5.336-1.813-7.469-3.776c-0.97-0.894-1.951-1.782-3.145-2.392
			c-1.567-0.801-3.214-0.94-4.901-0.494c-1.56,0.413-2.507,1.681-2.687,3.302c-0.153,1.369,0.244,2.604,0.76,3.816
			c1.805,4.239,4.826,7.399,8.813,9.676c2.755,1.574,5.736,2.506,8.857,3.041c2.645,0.453,5.309,0.571,7.979,0.464
			c2.149-0.087,4.265-0.42,6.3-1.153c0.103-0.037,0.211-0.053,0.42-0.104c-0.134,0.17-0.195,0.263-0.271,0.342
			c-3.455,3.605-7.599,6.018-12.493,7.12c-1.452,0.327-2.926,0.467-4.414,0.517c-2.313,0.078-4.422-0.538-6.38-1.73
			c-1.85-1.126-3.442-2.562-4.854-4.181c-1.802-2.068-3.531-4.198-5.296-6.297c-1.276-1.516-2.593-2.995-4.189-4.194
			c-1.116-0.838-2.323-1.508-3.734-1.664c-1.486-0.163-2.949-0.036-4.292,0.704c-1.322,0.729-1.971,1.901-2.183,3.352
			c-0.265,1.812,0.318,3.449,1.112,5.017c1.879,3.716,4.681,6.462,8.684,7.848c0.955,0.331,1.98,0.457,2.973,0.678
			c0.079,0.018,0.157,0.041,0.229,0.14c-0.453,0.05-0.906,0.122-1.362,0.147c-1.217,0.067-2.436,0.187-3.65,0.155
			c-1.854-0.048-3.639-0.537-5.392-1.11c-3.922-1.283-7.402-3.295-10.307-6.24c-3.117-3.165-5.066-6.963-6.117-11.239
			c-0.48-1.952-0.773-3.934-0.849-5.942c-0.057-1.545-0.068-3.092-0.134-4.637c-0.149-3.527-0.617-6.999-1.949-10.305
			c-0.913-2.266-2.198-4.276-4.215-5.738c-2.077-1.504-4.412-2.09-6.964-1.839c-0.241,0.023-0.483,0.05-0.726,0.072
			C435.566-50.757,435.548-50.78,435.468-50.829z M448.362-52.896c0.122,0.179,0.186,0.298,0.271,0.399
			c0.482,0.569,1.087,0.961,1.796,1.193c2.016,0.657,3.732-0.114,4.394-1.975c0.044-0.125,0.066-0.258,0.122-0.47
			C452.705-53.642,450.558-53.369,448.362-52.896z"/>
		<path fill="none" stroke="#6D41B5" stroke-miterlimit="10" d="M488.238-2.087c-0.682,0.117-1.276,0.188-1.855,0.326
			c-0.527,0.126-1.048,0.297-1.549,0.503c-0.304,0.125-0.593,0.323-0.842,0.542c-0.674,0.594-0.726,1.436-0.155,2.13
			c0.433,0.527,1.021,0.828,1.641,1.071c1.239,0.486,2.537,0.733,3.858,0.831c1.377,0.103,2.762,0.097,4.135,0.224
			c3.365,0.314,6.513,1.236,9.121,3.503c0.461,0.401,0.851,0.882,1.269,1.33c0.066,0.072,0.113,0.165,0.223,0.328
			c-0.165-0.046-0.246-0.06-0.32-0.09c-1.87-0.791-3.826-1.231-5.842-1.456c-2.255-0.252-4.488-0.092-6.729,0.195
			c-2.39,0.305-4.785,0.586-7.186,0.772c-3.343,0.259-6.519-0.535-9.594-1.764c-5.885-2.352-10.672-6.145-14.601-11.052
			c-0.419-0.524-0.813-1.068-1.216-1.604c-0.065-0.087-0.12-0.183-0.179-0.274c0.022-0.025,0.045-0.05,0.067-0.075
			c0.116,0.078,0.232,0.155,0.348,0.235c3.134,2.162,6.501,3.832,10.223,4.732c3.898,0.942,7.725,0.728,11.462-0.776
			c1.22-0.491,2.473-0.869,3.813-0.8c1.256,0.064,2.453,0.339,3.563,0.945C487.988-2.259,488.074-2.194,488.238-2.087z"/>
		<path fill="none" stroke="#6D41B5" stroke-miterlimit="10" d="M531.799-25.612c-0.045-0.176-0.09-0.352-0.139-0.525
			c-0.767-2.776-3.555-5.208-6.416-5.584c-1.641-0.216-3.234,0.042-4.804,0.511c-1.44,0.431-2.872,0.906-4.333,1.256
			c-1.548,0.372-3.141,0.446-4.734,0.461c-5.134,0.05-10.025-0.939-14.586-3.341c-3.16-1.664-5.887-3.858-8.122-6.642
			c-0.036-0.045-0.084-0.085-0.104-0.137c-0.034-0.085-0.05-0.178-0.072-0.268c0.101,0.018,0.221,0.005,0.298,0.056
			c0.812,0.536,1.593,1.123,2.43,1.618c2.841,1.682,5.915,2.734,9.175,3.268c1.63,0.267,3.271,0.394,4.92,0.393
			c2.893-0.002,5.675-0.616,8.424-1.468c1.479-0.459,2.978-0.895,4.498-1.167c2.409-0.432,4.816-0.322,7.12,0.598
			c3.005,1.199,4.782,3.505,5.782,6.484c0.465,1.387,0.678,2.819,0.752,4.274c0.004,0.067-0.006,0.134-0.011,0.2
			C531.852-25.623,531.825-25.617,531.799-25.612z"/>
		<path fill="none" stroke="#6D41B5" stroke-miterlimit="10" d="M535.786-14.623c-1.019-0.312-2.043-0.438-3.084-0.522
			c-1.64-0.131-3.108,0.265-4.303,1.38c-0.996,0.93-1.915,1.945-2.827,2.96c-1.672,1.866-3.51,3.524-5.738,4.719
			c-2.186,1.17-4.522,1.888-6.952,2.329c-2.197,0.398-4.414,0.564-6.645,0.583c-0.109,0.001-0.219,0-0.34-0.075
			c0.092-0.027,0.182-0.057,0.273-0.082c1.789-0.474,3.355-1.378,4.685-2.624c1.63-1.526,3.175-3.142,4.742-4.733
			c1.359-1.379,2.753-2.717,4.372-3.8c2.142-1.433,4.487-2.271,7.078-2.413c2.25-0.123,4.454,0.079,6.552,0.936
			c0.637,0.259,1.215,0.662,1.812,1.012C535.553-14.87,535.662-14.734,535.786-14.623z"/>
		<path fill="none" stroke="#6D41B5" stroke-miterlimit="10" d="M529.407-19.277c-0.59-0.09-1.11-0.17-1.631-0.25
			c-1.906-0.287-3.817-0.507-5.749-0.458c-1.535,0.039-2.973,0.469-4.308,1.209c-1.155,0.64-2.281,1.331-3.433,1.978
			c-2.318,1.304-4.818,2.063-7.45,2.428c-1.785,0.247-3.578,0.365-5.379,0.334c-2.311-0.039-4.483-0.641-6.55-1.645
			c-0.038-0.018-0.071-0.046-0.089-0.133c0.403,0.056,0.805,0.129,1.21,0.163c1.211,0.099,2.423,0.221,3.638,0.262
			c1.326,0.045,2.582-0.329,3.737-0.94c1.473-0.78,2.908-1.632,4.342-2.482c2.23-1.324,4.545-2.443,7.087-3.051
			c2.09-0.499,4.213-0.708,6.351-0.568c2.95,0.194,5.625,1.196,8.021,2.928c0.037,0.027,0.072,0.057,0.106,0.088
			C529.327-19.399,529.336-19.378,529.407-19.277z"/>
		<path fill="none" stroke="#6D41B5" stroke-miterlimit="10" d="M509.135-39.327c-0.734,0.271-1.457,0.575-2.203,0.805
			c-1.955,0.601-3.962,0.711-5.991,0.555c-5.499-0.423-10.252-2.67-14.544-5.971c-1.382-1.063-2.619-2.312-3.92-3.479
			c-0.098-0.088-0.175-0.2-0.319-0.368c0.735,0,1.382-0.027,2.025,0.005c1.774,0.091,3.527,0.322,5.248,0.791
			c2.653,0.724,4.966,2.076,7.126,3.732c1.186,0.909,2.374,1.82,3.619,2.642c1.755,1.156,3.717,1.647,5.822,1.495
			c1.037-0.075,2.069-0.193,3.104-0.292C509.113-39.383,509.124-39.355,509.135-39.327z"/>
		<path fill="none" stroke="#6D41B5" stroke-miterlimit="10" d="M529.639-10.431c0.104-0.08,0.179-0.148,0.263-0.2
			c1.639-0.989,3.396-1.578,5.334-1.554c2.375,0.028,4.37,0.926,6.027,2.598c0.571,0.575,1.133,1.161,1.709,1.73
			c0.924,0.914,1.944,1.685,3.241,2.001c0.409,0.1,0.832,0.154,1.287,0.236c-0.063,0.073-0.094,0.139-0.145,0.164
			c-2.304,1.143-4.696,1.547-7.209,0.806c-1.151-0.34-2.083-1.043-2.949-1.846c-0.797-0.741-1.57-1.512-2.416-2.193
			c-1.252-1.009-2.73-1.49-4.333-1.603c-0.23-0.017-0.462-0.043-0.692-0.068C529.736-10.361,529.718-10.381,529.639-10.431z"/>
		<path fill="none" stroke="#6D41B5" stroke-miterlimit="10" d="M494.031,9.181c1.21,0.063,2.421,0.113,3.63,0.194
			c1.31,0.088,2.593,0.333,3.85,0.715c2.451,0.745,4.223,2.342,5.617,4.413c0.31,0.46,0.604,0.93,0.906,1.396
			c0.562,0.874,1.308,1.552,2.216,2.06c0.112,0.062,0.217,0.139,0.326,0.208c-0.011,0.035-0.022,0.069-0.031,0.104
			c-0.351-0.025-0.703-0.029-1.049-0.079c-2.473-0.355-4.63-1.369-6.439-3.086c-0.385-0.365-0.718-0.785-1.086-1.169
			c-1.873-1.961-4.016-3.52-6.644-4.341c-0.427-0.134-0.866-0.232-1.3-0.347C494.029,9.226,494.029,9.203,494.031,9.181z"/>
		<path fill="none" stroke="#6D41B5" stroke-miterlimit="10" d="M448.13-53.273c2.194-0.473,4.342-0.746,6.581-0.854
			c-0.054,0.213-0.077,0.346-0.122,0.471c-0.661,1.861-2.376,2.631-4.393,1.975c-0.71-0.231-1.314-0.624-1.796-1.193
			C448.315-52.975,448.25-53.094,448.13-53.273z"/>
	</g>
	<g id="erlang-logo">
		<path id="erlang" fill="none" stroke="#6D41B5" stroke-miterlimit="10" d="M347.119-30.903c-0.696,0.767-1.321,1.503-1.999,2.188
			c-0.877,0.887-1.86,1.635-3.037,2.1c-0.863,0.341-1.75,0.399-2.652,0.238c-1.311-0.235-2.138-1.049-2.602-2.259
			c-0.182-0.472-0.318-0.961-0.508-1.543c-0.139,0.219-0.246,0.377-0.344,0.54c-1.428,2.391-3.17,4.498-5.518,6.046
			c-1.072,0.708-2.217,1.232-3.525,1.359c-1.492,0.145-2.713-0.557-3.262-1.971c-0.482-1.237-0.57-2.528-0.25-3.806
			c0.748-2.978,1.551-5.941,2.325-8.912c0.214-0.82,0.438-1.64,0.595-2.472c0.091-0.478,0.102-0.98,0.07-1.467
			c-0.059-0.87-0.701-1.329-1.561-1.16c-0.818,0.161-1.463,0.634-2.019,1.22c-1.771,1.865-2.903,4.059-3.484,6.573
			c-0.622,2.692-1.239,5.395-2.049,8.034c-1.308,4.264-3.86,7.564-8.005,9.455c-1.535,0.7-3.154,1.032-4.859,0.823
			c-1.75-0.216-2.823-1.205-3.332-2.86c-0.059-0.189-0.125-0.377-0.203-0.613c-0.463,0.7-0.869,1.364-1.325,1.993
			c-1.388,1.914-2.978,3.623-5.063,4.802c-0.869,0.491-1.797,0.822-2.81,0.777c-1.36-0.06-2.308-0.814-3.002-1.922
			c-0.286-0.457-0.513-0.952-0.79-1.476c-0.262,0.393-0.506,0.77-0.76,1.139c-1.629,2.365-3.545,4.431-6.123,5.787
			c-1.521,0.8-3.122,1.232-4.859,0.919c-1.147-0.207-2.09-0.774-2.861-1.638c-0.123-0.139-0.244-0.279-0.369-0.421
			c-0.814,0.842-1.587,1.697-2.42,2.488c-1.738,1.652-3.654,3.04-5.979,3.773c-1.217,0.384-2.455,0.51-3.719,0.293
			c-1.788-0.308-2.857-1.4-3.332-3.104c-0.562-2.009-0.326-4.005,0.154-5.99c0.764-3.163,1.963-6.171,3.266-9.142
			c0.082-0.186,0.158-0.373,0.264-0.623c-1.391,0.31-2.693,0.257-3.961-0.495c-0.093,0.229-0.184,0.438-0.262,0.65
			c-1.432,3.939-2.883,7.871-4.752,11.632c-2.053,4.129-4.474,8.007-7.781,11.267c-3.301,3.251-7.152,5.504-11.78,6.225
			c-4.228,0.657-8.349,0.358-12.133-1.866c-3.813-2.241-6.011-5.669-6.753-9.959c-1.338-7.733,1.527-13.839,7.585-18.571
			c2.973-2.322,6.345-3.844,10.041-4.632c0.132-0.027,0.261-0.068,0.451-0.12c-0.106-0.118-0.183-0.218-0.272-0.301
			c-1.756-1.632-2.538-3.685-2.637-6.041c-0.302-7.199,5.588-11.777,10.822-12.436c2.715-0.341,5.312,0.161,7.398,2.119
			c2.282,2.142,2.801,5.581,1.373,8.551c-0.357,0.743-0.791,1.428-1.479,1.914c-0.52,0.368-1.087,0.54-1.729,0.425
			c-0.563-0.102-0.858-0.38-0.887-0.941c-0.02-0.368-0.019-0.756,0.072-1.109c0.668-2.593-0.32-4.24-2.941-4.855
			c-3.312-0.778-6.939,0.861-8.426,3.807c-1.146,2.272-0.859,5.199,0.769,6.91c0.488,0.513,1.163,0.857,1.782,1.23
			c0.197,0.118,0.491,0.113,0.738,0.104c1.18-0.049,2.344,0.001,3.457,0.444c0.946,0.377,1.446,0.985,1.395,1.679
			c-0.05,0.647-0.648,1.224-1.587,1.45c-1.579,0.383-3.106,0.087-4.592-0.458c-0.47-0.173-0.899-0.194-1.38-0.079
			c-6.263,1.496-11.014,6.542-11.995,12.9c-0.493,3.194-0.102,6.293,1.784,9.027c2.214,3.212,5.35,4.515,9.197,4.217
			c1.634-0.127,3.229-0.429,4.757-1.036c0.126-0.05,0.251-0.101,0.375-0.157c0.022-0.01,0.032-0.048,0.074-0.112
			c-0.208-0.053-0.4-0.1-0.592-0.149c-3.376-0.877-5.294-3.111-5.901-6.479c-0.566-3.136,0.205-5.925,2.407-8.279
			c2.491-2.663,6.958-3.546,10.249-1.988c2.287,1.082,3.475,3.019,4.006,5.401c0.204,0.919,0.275,1.867,0.49,2.93
			c0.023-0.083,0.027-0.181,0.074-0.249c2.968-4.289,5.279-8.896,6.708-13.924c0.083-0.294,0.044-0.677-0.071-0.964
			c-0.72-1.792-1.35-3.608-1.23-5.57c0.043-0.712,0.198-1.467,0.507-2.103c0.831-1.713,2.693-1.759,3.7-0.144
			c0.539,0.863,0.778,1.838,0.716,2.824c-0.077,1.229-0.282,2.455-0.512,3.667c-0.077,0.406,0.021,0.543,0.351,0.676
			c0.869,0.352,1.719,0.262,2.393-0.34c0.637-0.567,1.15-1.277,1.686-1.95c0.229-0.289,0.357-0.656,0.566-0.964
			c0.189-0.277,0.396-0.559,0.65-0.774c0.596-0.508,1.613-0.597,2.201-0.236c0.545,0.333,0.862,1.086,0.586,1.908
			c-0.404,1.199-0.898,2.376-1.445,3.519c-1.084,2.263-1.989,4.578-2.318,7.079c-0.19,1.447-0.346,2.901-0.061,4.358
			c0.509,2.598,2.229,3.628,4.75,2.848c1.602-0.496,2.74-1.592,3.728-2.878c0.075-0.099,0.095-0.288,0.062-0.416
			c-0.742-2.879-0.733-5.803-0.305-8.704c1.703-11.502,6.099-21.95,12.564-31.562c1.111-1.651,2.395-3.174,3.879-4.512
			c0.824-0.743,1.703-1.412,2.773-1.77c1.508-0.504,2.661-0.036,3.205,1.446c0.31,0.846,0.482,1.773,0.535,2.676
			c0.158,2.639-0.33,5.215-1.04,7.739c-2.441,8.679-6.825,16.271-12.915,22.894c-0.884,0.961-1.857,1.84-2.765,2.781
			c-0.195,0.202-0.361,0.494-0.407,0.767c-0.326,1.92-0.481,3.847,0.018,5.763c0.678,2.598,2.564,3.346,4.84,1.928
			c1.455-0.907,2.543-2.186,3.538-3.553c0.22-0.303,0.406-0.629,0.633-0.926c1.103-1.441,1.52-3.138,1.938-4.864
			c1.082-4.467,2.861-8.629,5.74-12.26c1.429-1.801,3.066-3.364,5.204-4.319c0.954-0.426,1.949-0.57,2.984-0.456
			c1.099,0.121,1.606,0.476,2.458,1.742c0.102-0.341,0.227-0.641,0.277-0.952c0.18-1.106,0.949-1.7,1.876-2.107
			c0.868-0.381,1.773-0.678,2.67-0.99c0.646-0.225,0.972,0.057,0.807,0.731c-0.626,2.554-1.281,5.1-1.917,7.65
			c-0.817,3.275-1.668,6.543-2.411,9.835c-0.204,0.903-0.192,1.896-0.071,2.821c0.137,1.057,0.775,1.369,1.82,1.107
			c0.818-0.205,1.479-0.674,2.032-1.294c1.286-1.438,2.07-3.162,2.572-4.983c1.013-3.679,1.921-7.387,2.872-11.083
			c0.404-1.577,0.81-3.154,1.213-4.732c0.365-1.431,1.17-2.456,2.614-2.939c0.739-0.247,1.446-0.588,2.185-0.84
			c0.209-0.071,0.555-0.061,0.693,0.068c0.133,0.123,0.15,0.465,0.098,0.682c-0.222,0.906-0.488,1.8-0.737,2.699
			c-0.034,0.126-0.057,0.255-0.003,0.423c0.094-0.132,0.189-0.262,0.279-0.396c1.381-2.026,3.062-3.722,5.298-4.804
			c0.786-0.381,1.604-0.652,2.494-0.62c1.711,0.062,2.712,0.995,2.982,2.687c0.21,1.316-0.065,2.573-0.384,3.822
			c-0.756,2.975-1.575,5.934-2.309,8.914c-0.203,0.829-0.279,1.712-0.263,2.568c0.022,1.194,0.835,1.69,1.87,1.092
			c2.406-1.394,4.28-3.24,4.877-6.121c0.984-4.76,2.616-9.271,5.369-13.321c1.338-1.97,2.892-3.734,4.98-4.954
			c1.175-0.686,2.43-1.039,3.801-0.886c1.129,0.125,2.039,0.607,2.619,1.621c0.058,0.102,0.121,0.2,0.186,0.299
			c0.006,0.009,0.029,0.006,0.084,0.015c0.209-0.649,0.369-1.329,0.649-1.954c0.185-0.412,0.465-0.906,0.837-1.086
			c1.139-0.551,2.332-1.001,3.528-1.419c0.519-0.182,0.858,0.27,0.706,0.89c-0.238,0.971-0.511,1.935-0.766,2.901
			c-1.998,7.577-3.944,15.168-6.013,22.727c-0.971,3.546-2.175,7.028-3.271,10.54c-0.029,0.093-0.047,0.188-0.078,0.323
			c2.099,0.064,4.133-0.127,6.135-0.636c3.096-0.786,5.547-2.487,7.303-5.172c0.213-0.325,0.449-0.643,0.718-0.921
			c0.412-0.428,0.903-0.521,1.231-0.286c0.34,0.243,0.424,0.78,0.162,1.306c-0.648,1.298-1.451,2.493-2.446,3.555
			c-2.507,2.675-5.64,4.158-9.22,4.675c-1.588,0.229-3.213,0.229-4.822,0.288c-0.332,0.012-0.469,0.111-0.61,0.381
			c-2.454,4.688-5.673,8.739-9.994,11.85c-3.944,2.839-8.343,4.491-13.183,4.961c-3.514,0.341-6.988,0.182-10.392-0.83
			c-1.776-0.528-3.438-1.298-4.781-2.611c-2.384-2.332-2.653-5.134-1.646-8.137c0.794-2.365,2.449-4.081,4.467-5.468
			c2.721-1.868,5.777-2.897,8.982-3.545c3.521-0.712,7.084-0.81,10.65-0.598c2.964,0.176,5.92,0.496,8.879,0.752
			c0.998,0.086,1.998,0.157,2.994,0.264c0.355,0.038,0.514-0.083,0.617-0.415c0.795-2.541,1.611-5.074,2.407-7.614
			c0.364-1.166,0.699-2.341,1.046-3.512C347.072-30.624,347.085-30.734,347.119-30.903z M342.2-16.204
			c-0.861-0.064-1.633-0.11-2.404-0.183c-4.246-0.396-8.5-0.633-12.766-0.571c-2.212,0.032-4.406,0.255-6.536,0.901
			c-3.501,1.062-6.04,3.203-6.18,7.145c-0.062,1.73,0.372,3.303,1.607,4.575c1.423,1.466,3.241,2.121,5.214,2.253
			c4.559,0.305,8.752-0.832,12.508-3.461c3.625-2.538,6.177-5.975,8.177-9.863C341.94-15.643,342.048-15.884,342.2-16.204z
			 M277.731-24.665c0.071,0.034,0.143,0.068,0.215,0.103c0.028-0.062,0.045-0.136,0.088-0.187
			c5.237-6.225,9.287-13.121,11.756-20.899c0.658-2.073,1.197-4.185,1.153-6.385c-0.011-0.562-0.132-1.148-0.33-1.676
			c-0.206-0.549-0.739-0.678-1.217-0.333c-0.38,0.274-0.774,0.593-1.018,0.981c-0.995,1.596-2.044,3.172-2.876,4.853
			c-2.816,5.689-4.91,11.654-6.495,17.796C278.518-28.513,278.153-26.582,277.731-24.665z M341.159-35.366
			c0.093,0.381,0.209,1.156,0.476,1.875c0.243,0.656,0.818,0.965,1.544,0.944c1.107-0.031,1.975-0.57,2.735-1.307
			c1.308-1.266,2.224-2.814,2.807-4.502c0.851-2.465,1.544-4.985,2.278-7.489c0.276-0.943,0.512-1.903,0.342-2.907
			c-0.285-1.7-1.556-2.413-3.098-1.636c-0.682,0.344-1.32,0.848-1.85,1.401c-1.5,1.567-2.484,3.471-3.316,5.452
			C342.034-41.047,341.292-38.483,341.159-35.366z M293.224-21.912c0.09,0.402,0.184,1.201,0.45,1.938
			c0.323,0.894,1.081,1.228,2.015,1.054c0.811-0.15,1.498-0.545,2.096-1.093c1.511-1.387,2.562-3.087,3.161-5.029
			c0.688-2.234,1.283-4.499,1.87-6.763c0.301-1.161,0.378-2.35-0.062-3.509c-0.424-1.118-1.302-1.532-2.445-1.176
			c-0.837,0.261-1.493,0.794-2.083,1.414c-1.316,1.386-2.223,3.034-2.98,4.769C294.13-27.755,293.374-25.11,293.224-21.912z
			 M234.69-9.033c0.057,0.444,0.1,1.108,0.231,1.754c0.699,3.43,3.324,5.255,7.239,3.914c0.119-0.041,0.238-0.133,0.319-0.231
			c1.715-2.114,2.784-4.433,2.466-7.256c-0.417-3.7-4.215-5.662-7.438-3.778C235.462-13.434,234.771-11.498,234.69-9.033z"/>
	</g>
	<g id="elixir-logo">
		<path fill="none" stroke="#6D41B5" stroke-miterlimit="10" d="M-51.06,1.08c24.345-4.923,19-25.439,17.108-31.605
			s-8.975-15.202-15.081-21.923c-3.731-4.107-8.857-13.727-6.944-24.441c1.246-6.977-34.168,32.357-26.626,57.802
			C-77.049-0.353-65.354,3.972-51.06,1.08z"/>
		<path fill="none" stroke="#6D41B5" stroke-miterlimit="10" d="M-82.263-18.192c0,0,23.592,22.083,49.507-7.962"/>
		<path fill="none" stroke="#6D41B5" stroke-miterlimit="10" d="M-82.59-34.277c0,0,22.177,22.909,47.627,1.382"/>
		<path fill="none" stroke="#6D41B5" stroke-miterlimit="10" d="M-70.72-61.55c0,0-7.041,54.759,32.189,56.866"/>
		<path fill="none" stroke="#6D41B5" stroke-miterlimit="10" d="M-79.747-44.34c0,0-6.682,45.156,34.596,43.561"/>
		<path fill="none" stroke="#6D41B5" stroke-miterlimit="10" d="M-53.729-59.447c0,0-13.348,16.937-13.348,32.385"/>
	</g>
	<g id="browser">
		<g>
			<defs>
				<path id="SVGID_1_" d="M-299.875-1.489c0,0.276-0.225,0.5-0.502,0.5h-3.609c-0.277,0-0.502-0.224-0.502-0.5v-0.167
					c0-0.276,0.225-0.5,0.502-0.5h3.609c0.278,0,0.502,0.224,0.502,0.5V-1.489z"/>
			</defs>
			<clipPath id="SVGID_2_">
				<use xlink:href="#SVGID_1_"  overflow="visible"/>
			</clipPath>
			<g clip-path="url(#SVGID_2_)">
				<rect x="-308.446" y="-6.113" fill="#6D41B5" width="12.528" height="9.081"/>
			</g>
		</g>
		<g>
			<defs>
				<path id="SVGID_3_" d="M-287.612-1.489c0,0.276-0.225,0.5-0.502,0.5h-10.074c-0.278,0-0.502-0.224-0.502-0.5v-0.167
					c0-0.276,0.224-0.5,0.502-0.5h10.074c0.277,0,0.502,0.224,0.502,0.5V-1.489z"/>
			</defs>
			<clipPath id="SVGID_4_">
				<use xlink:href="#SVGID_3_"  overflow="visible"/>
			</clipPath>
			<g clip-path="url(#SVGID_4_)">
				<rect x="-302.647" y="-6.113" fill="#6D41B5" width="18.992" height="9.081"/>
			</g>
		</g>
		<g>
			<defs>
				<path id="SVGID_5_" d="M-275.315-1.489c0,0.276-0.225,0.5-0.502,0.5h-10.074c-0.278,0-0.503-0.224-0.503-0.5v-0.167
					c0-0.276,0.225-0.5,0.503-0.5h10.074c0.277,0,0.502,0.224,0.502,0.5V-1.489z"/>
			</defs>
			<clipPath id="SVGID_6_">
				<use xlink:href="#SVGID_5_"  overflow="visible"/>
			</clipPath>
			<g clip-path="url(#SVGID_6_)">
				<rect x="-290.351" y="-6.113" fill="#6D41B5" width="18.993" height="9.081"/>
			</g>
		</g>
		<g>
			<defs>
				<path id="SVGID_7_" d="M-299.875-4.843c0,0.276-0.225,0.5-0.502,0.5h-3.609c-0.277,0-0.502-0.224-0.502-0.5V-5.01
					c0-0.276,0.225-0.5,0.502-0.5h3.609c0.278,0,0.502,0.225,0.502,0.5V-4.843z"/>
			</defs>
			<clipPath id="SVGID_8_">
				<use xlink:href="#SVGID_7_"  overflow="visible"/>
			</clipPath>
			<g clip-path="url(#SVGID_8_)">
				<rect x="-308.446" y="-9.467" fill="#6D41B5" width="12.528" height="9.081"/>
			</g>
		</g>
		<g>
			<defs>
				<path id="SVGID_9_" d="M-269.36-4.843c0,0.276-0.225,0.5-0.502,0.5h-3.609c-0.278,0-0.502-0.224-0.502-0.5V-5.01
					c0-0.276,0.224-0.5,0.502-0.5h3.609c0.277,0,0.502,0.225,0.502,0.5V-4.843z"/>
			</defs>
			<clipPath id="SVGID_10_">
				<use xlink:href="#SVGID_9_"  overflow="visible"/>
			</clipPath>
			<g clip-path="url(#SVGID_10_)">
				<rect x="-277.931" y="-9.467" fill="#6D41B5" width="12.527" height="9.081"/>
			</g>
		</g>
		<g>
			<defs>
				<path id="SVGID_11_" d="M-289.505-4.843c0,0.276-0.225,0.5-0.502,0.5h-8.18c-0.278,0-0.502-0.224-0.502-0.5V-5.01
					c0-0.276,0.224-0.5,0.502-0.5h8.18c0.278,0,0.502,0.225,0.502,0.5V-4.843z"/>
			</defs>
			<clipPath id="SVGID_12_">
				<use xlink:href="#SVGID_11_"  overflow="visible"/>
			</clipPath>
			<g clip-path="url(#SVGID_12_)">
				<rect x="-302.647" y="-9.467" fill="#6D41B5" width="17.098" height="9.081"/>
			</g>
		</g>
		<g>
			<defs>
				<path id="SVGID_13_" d="M-275.315-4.843c0,0.276-0.225,0.5-0.502,0.5h-11.867c-0.277,0-0.502-0.224-0.502-0.5V-5.01
					c0-0.276,0.225-0.5,0.502-0.5h11.867c0.277,0,0.502,0.225,0.502,0.5V-4.843z"/>
			</defs>
			<clipPath id="SVGID_14_">
				<use xlink:href="#SVGID_13_"  overflow="visible"/>
			</clipPath>
			<g clip-path="url(#SVGID_14_)">
				<rect x="-292.144" y="-9.467" fill="#6D41B5" width="20.786" height="9.081"/>
			</g>
		</g>
		<g>
			<defs>
				<path id="SVGID_15_" d="M-275.315-8.199c0,0.276-0.225,0.5-0.502,0.5h-10.074c-0.278,0-0.503-0.224-0.503-0.5v-0.167
					c0-0.276,0.225-0.5,0.503-0.5h10.074c0.277,0,0.502,0.224,0.502,0.5V-8.199z"/>
			</defs>
			<clipPath id="SVGID_16_">
				<use xlink:href="#SVGID_15_"  overflow="visible"/>
			</clipPath>
			<g clip-path="url(#SVGID_16_)">
				<rect x="-290.351" y="-12.822" fill="#6D41B5" width="18.993" height="9.081"/>
			</g>
		</g>
		<g>
			<defs>
				<path id="SVGID_17_" d="M-287.612-8.199c0,0.276-0.225,0.5-0.502,0.5h-10.074c-0.278,0-0.502-0.224-0.502-0.5v-0.167
					c0-0.276,0.224-0.5,0.502-0.5h10.074c0.277,0,0.502,0.224,0.502,0.5V-8.199z"/>
			</defs>
			<clipPath id="SVGID_18_">
				<use xlink:href="#SVGID_17_"  overflow="visible"/>
			</clipPath>
			<g clip-path="url(#SVGID_18_)">
				<rect x="-302.647" y="-12.822" fill="#6D41B5" width="18.992" height="9.081"/>
			</g>
		</g>
		<g>
			<defs>
				<path id="SVGID_19_" d="M-299.875-8.199c0,0.276-0.225,0.5-0.502,0.5h-3.609c-0.277,0-0.502-0.224-0.502-0.5v-0.167
					c0-0.276,0.225-0.5,0.502-0.5h3.609c0.278,0,0.502,0.224,0.502,0.5V-8.199z"/>
			</defs>
			<clipPath id="SVGID_20_">
				<use xlink:href="#SVGID_19_"  overflow="visible"/>
			</clipPath>
			<g clip-path="url(#SVGID_20_)">
				<rect x="-308.446" y="-12.822" fill="#6D41B5" width="12.528" height="9.081"/>
			</g>
		</g>
		<g>
			<defs>
				<path id="SVGID_21_" d="M-281.386-11.51c0,0.276-0.225,0.5-0.502,0.5h-10.073c-0.278,0-0.503-0.224-0.503-0.5v-0.167
					c0-0.276,0.225-0.5,0.503-0.5h10.073c0.278,0,0.502,0.224,0.502,0.5V-11.51z"/>
			</defs>
			<clipPath id="SVGID_22_">
				<use xlink:href="#SVGID_21_"  overflow="visible"/>
			</clipPath>
			<g clip-path="url(#SVGID_22_)">
				<rect x="-296.421" y="-16.134" fill="#6D41B5" width="18.992" height="9.081"/>
			</g>
		</g>
		<g>
			<defs>
				<path id="SVGID_23_" d="M-293.682-11.51c0,0.276-0.225,0.5-0.502,0.5h-10.075c-0.277,0-0.502-0.224-0.502-0.5v-0.167
					c0-0.276,0.225-0.5,0.502-0.5h10.075c0.277,0,0.502,0.224,0.502,0.5V-11.51z"/>
			</defs>
			<clipPath id="SVGID_24_">
				<use xlink:href="#SVGID_23_"  overflow="visible"/>
			</clipPath>
			<g clip-path="url(#SVGID_24_)">
				<rect x="-308.717" y="-16.134" fill="#6D41B5" width="18.992" height="9.081"/>
			</g>
		</g>
		<g>
			<defs>
				<path id="SVGID_25_" d="M-275.846-14.819c0,0.276-0.225,0.5-0.502,0.5h-10.074c-0.278,0-0.502-0.224-0.502-0.5v-0.167
					c0-0.276,0.225-0.5,0.502-0.5h10.074c0.277,0,0.502,0.224,0.502,0.5V-14.819z"/>
			</defs>
			<clipPath id="SVGID_26_">
				<use xlink:href="#SVGID_25_"  overflow="visible"/>
			</clipPath>
			<g clip-path="url(#SVGID_26_)">
				<rect x="-290.881" y="-19.442" fill="#6D41B5" width="18.992" height="9.08"/>
			</g>
		</g>
		<g>
			<defs>
				<path id="SVGID_27_" d="M-288.143-14.819c0,0.276-0.225,0.5-0.503,0.5h-10.073c-0.278,0-0.503-0.224-0.503-0.5v-0.167
					c0-0.276,0.225-0.5,0.503-0.5h10.073c0.278,0,0.503,0.224,0.503,0.5V-14.819z"/>
			</defs>
			<clipPath id="SVGID_28_">
				<use xlink:href="#SVGID_27_"  overflow="visible"/>
			</clipPath>
			<g clip-path="url(#SVGID_28_)">
				<rect x="-303.178" y="-19.442" fill="#6D41B5" width="18.992" height="9.08"/>
			</g>
		</g>
		<g>
			<defs>
				<path id="SVGID_29_" d="M-300.407-14.819c0,0.276-0.225,0.5-0.502,0.5h-3.609c-0.278,0-0.502-0.224-0.502-0.5v-0.167
					c0-0.276,0.225-0.5,0.502-0.5h3.609c0.277,0,0.502,0.224,0.502,0.5V-14.819z"/>
			</defs>
			<clipPath id="SVGID_30_">
				<use xlink:href="#SVGID_29_"  overflow="visible"/>
			</clipPath>
			<g clip-path="url(#SVGID_30_)">
				<rect x="-308.977" y="-19.442" fill="#6D41B5" width="12.527" height="9.08"/>
			</g>
		</g>
		<g>
			<defs>
				<path id="SVGID_31_" d="M-301.915-18.361c0,0.276-0.225,0.5-0.502,0.5h-3.609c-0.278,0-0.502-0.224-0.502-0.5v-0.167
					c0-0.275,0.225-0.5,0.502-0.5h3.609c0.277,0,0.502,0.224,0.502,0.5V-18.361z"/>
			</defs>
			<clipPath id="SVGID_32_">
				<use xlink:href="#SVGID_31_"  overflow="visible"/>
			</clipPath>
			<g clip-path="url(#SVGID_32_)">
				<rect x="-310.486" y="-22.985" fill="#6D41B5" width="12.527" height="9.081"/>
			</g>
		</g>
		<g>
			<defs>
				<path id="SVGID_33_" d="M-269.535-22.229c0,0.277-0.225,0.5-0.502,0.5h-3.609c-0.277,0-0.502-0.224-0.502-0.5v-0.167
					c0-0.276,0.225-0.5,0.502-0.5h3.609c0.278,0,0.502,0.224,0.502,0.5V-22.229z"/>
			</defs>
			<clipPath id="SVGID_34_">
				<use xlink:href="#SVGID_33_"  overflow="visible"/>
			</clipPath>
			<g clip-path="url(#SVGID_34_)">
				<rect x="-278.105" y="-26.853" fill="#6D41B5" width="12.527" height="9.081"/>
			</g>
		</g>
		<g>
			<defs>
				<path id="SVGID_35_" d="M-275.49-22.229c0,0.277-0.225,0.5-0.502,0.5h-11.868c-0.277,0-0.502-0.224-0.502-0.5v-0.167
					c0-0.276,0.226-0.5,0.502-0.5h11.868c0.277,0,0.502,0.224,0.502,0.5V-22.229z"/>
			</defs>
			<clipPath id="SVGID_36_">
				<use xlink:href="#SVGID_35_"  overflow="visible"/>
			</clipPath>
			<g clip-path="url(#SVGID_36_)">
				<rect x="-292.319" y="-26.853" fill="#6D41B5" width="20.785" height="9.081"/>
			</g>
		</g>
		<g>
			<defs>
				<path id="SVGID_37_" d="M-300.051-22.229c0,0.277-0.225,0.5-0.502,0.5h-3.609c-0.277,0-0.502-0.224-0.502-0.5v-0.167
					c0-0.276,0.225-0.5,0.502-0.5h3.609c0.278,0,0.502,0.224,0.502,0.5V-22.229z"/>
			</defs>
			<clipPath id="SVGID_38_">
				<use xlink:href="#SVGID_37_"  overflow="visible"/>
			</clipPath>
			<g clip-path="url(#SVGID_38_)">
				<rect x="-308.621" y="-26.853" fill="#6D41B5" width="12.527" height="9.081"/>
			</g>
		</g>
		<g>
			<defs>
				<path id="SVGID_39_" d="M-289.68-22.229c0,0.277-0.226,0.5-0.503,0.5h-8.18c-0.277,0-0.502-0.224-0.502-0.5v-0.167
					c0-0.276,0.225-0.5,0.502-0.5h8.18c0.277,0,0.503,0.224,0.503,0.5V-22.229z"/>
			</defs>
			<clipPath id="SVGID_40_">
				<use xlink:href="#SVGID_39_"  overflow="visible"/>
			</clipPath>
			<g clip-path="url(#SVGID_40_)">
				<rect x="-302.822" y="-26.853" fill="#6D41B5" width="17.099" height="9.081"/>
			</g>
		</g>
		<g>
			<defs>
				<path id="SVGID_41_" d="M-275.49-25.583c0,0.276-0.225,0.5-0.502,0.5h-10.074c-0.277,0-0.502-0.224-0.502-0.5v-0.167
					c0-0.276,0.225-0.5,0.502-0.5h10.074c0.277,0,0.502,0.225,0.502,0.5V-25.583z"/>
			</defs>
			<clipPath id="SVGID_42_">
				<use xlink:href="#SVGID_41_"  overflow="visible"/>
			</clipPath>
			<g clip-path="url(#SVGID_42_)">
				<rect x="-290.525" y="-30.208" fill="#6D41B5" width="18.992" height="9.081"/>
			</g>
		</g>
		<g>
			<defs>
				<path id="SVGID_43_" d="M-287.787-25.583c0,0.276-0.226,0.5-0.502,0.5h-10.074c-0.278,0-0.502-0.224-0.502-0.5v-0.167
					c0-0.276,0.225-0.5,0.502-0.5h10.074c0.277,0,0.502,0.225,0.502,0.5V-25.583z"/>
			</defs>
			<clipPath id="SVGID_44_">
				<use xlink:href="#SVGID_43_"  overflow="visible"/>
			</clipPath>
			<g clip-path="url(#SVGID_44_)">
				<rect x="-302.822" y="-30.208" fill="#6D41B5" width="18.992" height="9.081"/>
			</g>
		</g>
		<g>
			<defs>
				<path id="SVGID_45_" d="M-300.051-25.583c0,0.276-0.225,0.5-0.502,0.5h-3.609c-0.277,0-0.502-0.224-0.502-0.5v-0.167
					c0-0.276,0.225-0.5,0.502-0.5h3.609c0.278,0,0.502,0.225,0.502,0.5V-25.583z"/>
			</defs>
			<clipPath id="SVGID_46_">
				<use xlink:href="#SVGID_45_"  overflow="visible"/>
			</clipPath>
			<g clip-path="url(#SVGID_46_)">
				<rect x="-308.621" y="-30.208" fill="#6D41B5" width="12.527" height="9.081"/>
			</g>
		</g>
		<g>
			<defs>
				<path id="SVGID_47_" d="M-281.386-28.979c0,0.276-0.225,0.5-0.502,0.5h-10.073c-0.278,0-0.503-0.224-0.503-0.5v-0.167
					c0-0.276,0.225-0.5,0.503-0.5h10.073c0.278,0,0.502,0.224,0.502,0.5V-28.979z"/>
			</defs>
			<clipPath id="SVGID_48_">
				<use xlink:href="#SVGID_47_"  overflow="visible"/>
			</clipPath>
			<g clip-path="url(#SVGID_48_)">
				<rect x="-296.421" y="-33.603" fill="#6D41B5" width="18.992" height="9.081"/>
			</g>
		</g>
		<g>
			<defs>
				<path id="SVGID_49_" d="M-293.682-28.979c0,0.276-0.225,0.5-0.502,0.5h-10.075c-0.277,0-0.502-0.224-0.502-0.5v-0.167
					c0-0.276,0.225-0.5,0.502-0.5h10.075c0.277,0,0.502,0.224,0.502,0.5V-28.979z"/>
			</defs>
			<clipPath id="SVGID_50_">
				<use xlink:href="#SVGID_49_"  overflow="visible"/>
			</clipPath>
			<g clip-path="url(#SVGID_50_)">
				<rect x="-308.717" y="-33.603" fill="#6D41B5" width="18.992" height="9.081"/>
			</g>
		</g>
		<g>
			<defs>
				<path id="SVGID_51_" d="M-275.846-32.287c0,0.276-0.225,0.5-0.502,0.5h-10.074c-0.278,0-0.502-0.224-0.502-0.5v-0.167
					c0-0.276,0.225-0.5,0.502-0.5h10.074c0.277,0,0.502,0.225,0.502,0.5V-32.287z"/>
			</defs>
			<clipPath id="SVGID_52_">
				<use xlink:href="#SVGID_51_"  overflow="visible"/>
			</clipPath>
			<g clip-path="url(#SVGID_52_)">
				<rect x="-290.881" y="-36.911" fill="#6D41B5" width="18.992" height="9.081"/>
			</g>
		</g>
		<g>
			<defs>
				<path id="SVGID_53_" d="M-288.143-32.287c0,0.276-0.225,0.5-0.503,0.5h-10.073c-0.278,0-0.503-0.224-0.503-0.5v-0.167
					c0-0.276,0.225-0.5,0.503-0.5h10.073c0.278,0,0.503,0.225,0.503,0.5V-32.287z"/>
			</defs>
			<clipPath id="SVGID_54_">
				<use xlink:href="#SVGID_53_"  overflow="visible"/>
			</clipPath>
			<g clip-path="url(#SVGID_54_)">
				<rect x="-303.178" y="-36.911" fill="#6D41B5" width="18.992" height="9.081"/>
			</g>
		</g>
		<g>
			<defs>
				<path id="SVGID_55_" d="M-300.407-32.287c0,0.276-0.225,0.5-0.502,0.5h-3.609c-0.278,0-0.502-0.224-0.502-0.5v-0.167
					c0-0.276,0.225-0.5,0.502-0.5h3.609c0.277,0,0.502,0.225,0.502,0.5V-32.287z"/>
			</defs>
			<clipPath id="SVGID_56_">
				<use xlink:href="#SVGID_55_"  overflow="visible"/>
			</clipPath>
			<g clip-path="url(#SVGID_56_)">
				<rect x="-308.977" y="-36.911" fill="#6D41B5" width="12.527" height="9.081"/>
			</g>
		</g>
		<g>
			<defs>
				<path id="SVGID_57_" d="M-301.915-35.83c0,0.276-0.225,0.5-0.502,0.5h-3.609c-0.278,0-0.502-0.224-0.502-0.5v-0.166
					c0-0.277,0.225-0.5,0.502-0.5h3.609c0.277,0,0.502,0.224,0.502,0.5V-35.83z"/>
			</defs>
			<clipPath id="SVGID_58_">
				<use xlink:href="#SVGID_57_"  overflow="visible"/>
			</clipPath>
			<g clip-path="url(#SVGID_58_)">
				<rect x="-310.486" y="-40.454" fill="#6D41B5" width="12.527" height="9.081"/>
			</g>
		</g>
		<g>
			<defs>
				<path id="SVGID_59_" d="M-271.042-39.697c0,0.275-0.225,0.5-0.502,0.5h-3.609c-0.277,0-0.502-0.225-0.502-0.5v-0.167
					c0-0.275,0.225-0.5,0.502-0.5h3.609c0.277,0,0.502,0.225,0.502,0.5V-39.697z"/>
			</defs>
			<clipPath id="SVGID_60_">
				<use xlink:href="#SVGID_59_"  overflow="visible"/>
			</clipPath>
			<g clip-path="url(#SVGID_60_)">
				<rect x="-279.612" y="-44.321" fill="#6D41B5" width="12.527" height="9.081"/>
			</g>
		</g>
		<g>
			<defs>
				<path id="SVGID_61_" d="M-276.997-39.697c0,0.275-0.226,0.5-0.502,0.5h-11.867c-0.277,0-0.502-0.225-0.502-0.5v-0.167
					c0-0.275,0.226-0.5,0.502-0.5h11.867c0.277,0,0.502,0.225,0.502,0.5V-39.697z"/>
			</defs>
			<clipPath id="SVGID_62_">
				<use xlink:href="#SVGID_61_"  overflow="visible"/>
			</clipPath>
			<g clip-path="url(#SVGID_62_)">
				<rect x="-293.826" y="-44.321" fill="#6D41B5" width="20.785" height="9.081"/>
			</g>
		</g>
		<g>
			<defs>
				<path id="SVGID_63_" d="M-291.187-39.697c0,0.275-0.226,0.5-0.503,0.5h-8.18c-0.277,0-0.502-0.225-0.502-0.5v-0.167
					c0-0.275,0.225-0.5,0.502-0.5h8.18c0.277,0,0.503,0.225,0.503,0.5V-39.697z"/>
			</defs>
			<clipPath id="SVGID_64_">
				<use xlink:href="#SVGID_63_"  overflow="visible"/>
			</clipPath>
			<g clip-path="url(#SVGID_64_)">
				<rect x="-304.329" y="-44.321" fill="#6D41B5" width="17.099" height="9.081"/>
			</g>
		</g>
		<g>
			<defs>
				<path id="SVGID_65_" d="M-301.557-39.697c0,0.275-0.226,0.5-0.503,0.5h-3.609c-0.277,0-0.502-0.225-0.502-0.5v-0.167
					c0-0.275,0.225-0.5,0.502-0.5h3.609c0.277,0,0.503,0.225,0.503,0.5V-39.697z"/>
			</defs>
			<clipPath id="SVGID_66_">
				<use xlink:href="#SVGID_65_"  overflow="visible"/>
			</clipPath>
			<g clip-path="url(#SVGID_66_)">
				<rect x="-310.128" y="-44.321" fill="#6D41B5" width="12.527" height="9.081"/>
			</g>
		</g>
		<g>
			<defs>
				<path id="SVGID_67_" d="M-276.997-43.052c0,0.276-0.226,0.5-0.502,0.5h-10.074c-0.277,0-0.502-0.224-0.502-0.5v-0.167
					c0-0.276,0.225-0.5,0.502-0.5h10.074c0.277,0,0.502,0.224,0.502,0.5V-43.052z"/>
			</defs>
			<clipPath id="SVGID_68_">
				<use xlink:href="#SVGID_67_"  overflow="visible"/>
			</clipPath>
			<g clip-path="url(#SVGID_68_)">
				<rect x="-292.032" y="-47.676" fill="#6D41B5" width="18.992" height="9.081"/>
			</g>
		</g>
		<g>
			<defs>
				<path id="SVGID_69_" d="M-289.294-43.052c0,0.276-0.225,0.5-0.502,0.5h-10.074c-0.278,0-0.502-0.224-0.502-0.5v-0.167
					c0-0.276,0.225-0.5,0.502-0.5h10.074c0.277,0,0.502,0.224,0.502,0.5V-43.052z"/>
			</defs>
			<clipPath id="SVGID_70_">
				<use xlink:href="#SVGID_69_"  overflow="visible"/>
			</clipPath>
			<g clip-path="url(#SVGID_70_)">
				<rect x="-304.329" y="-47.676" fill="#6D41B5" width="18.992" height="9.081"/>
			</g>
		</g>
		<g>
			<defs>
				<path id="SVGID_71_" d="M-301.557-43.052c0,0.276-0.226,0.5-0.503,0.5h-3.609c-0.277,0-0.502-0.224-0.502-0.5v-0.167
					c0-0.276,0.225-0.5,0.502-0.5h3.609c0.277,0,0.503,0.224,0.503,0.5V-43.052z"/>
			</defs>
			<clipPath id="SVGID_72_">
				<use xlink:href="#SVGID_71_"  overflow="visible"/>
			</clipPath>
			<g clip-path="url(#SVGID_72_)">
				<rect x="-310.128" y="-47.676" fill="#6D41B5" width="12.527" height="9.081"/>
			</g>
		</g>
		<g>
			<defs>
				<path id="SVGID_73_" d="M-271.285-46.553c0,0.276-0.225,0.5-0.502,0.5h-11.144c-0.278,0-0.502-0.224-0.502-0.5v-0.167
					c0-0.276,0.225-0.5,0.502-0.5h11.144c0.277,0,0.502,0.224,0.502,0.5V-46.553z"/>
			</defs>
			<clipPath id="SVGID_74_">
				<use xlink:href="#SVGID_73_"  overflow="visible"/>
			</clipPath>
			<g clip-path="url(#SVGID_74_)">
				<rect x="-287.39" y="-51.177" fill="#6D41B5" width="20.062" height="9.081"/>
			</g>
		</g>
		<g>
			<defs>
				<path id="SVGID_75_" d="M-286.717-46.553c0,0.276-0.225,0.5-0.502,0.5h-11.145c-0.278,0-0.502-0.224-0.502-0.5v-0.167
					c0-0.276,0.224-0.5,0.502-0.5h11.145c0.277,0,0.502,0.224,0.502,0.5V-46.553z"/>
			</defs>
			<clipPath id="SVGID_76_">
				<use xlink:href="#SVGID_75_"  overflow="visible"/>
			</clipPath>
			<g clip-path="url(#SVGID_76_)">
				<rect x="-302.822" y="-51.177" fill="#6D41B5" width="20.062" height="9.081"/>
			</g>
		</g>
		<g>
			<defs>
				<path id="SVGID_77_" d="M-301.557-46.553c0,0.276-0.226,0.5-0.503,0.5h-3.609c-0.278,0-0.502-0.224-0.502-0.5v-0.167
					c0-0.276,0.224-0.5,0.502-0.5h3.609c0.277,0,0.503,0.224,0.503,0.5V-46.553z"/>
			</defs>
			<clipPath id="SVGID_78_">
				<use xlink:href="#SVGID_77_"  overflow="visible"/>
			</clipPath>
			<g clip-path="url(#SVGID_78_)">
				<rect x="-310.128" y="-51.177" fill="#6D41B5" width="12.527" height="9.081"/>
			</g>
		</g>
		<g>
			<defs>
				<path id="SVGID_79_" d="M-331.177,1.404c0,0.277-0.226,0.5-0.503,0.5h-10.074c-0.278,0-0.502-0.224-0.502-0.5V1.238
					c0-0.277,0.225-0.5,0.502-0.5h10.074c0.277,0,0.503,0.223,0.503,0.5V1.404z"/>
			</defs>
			<clipPath id="SVGID_80_">
				<use xlink:href="#SVGID_79_"  overflow="visible"/>
			</clipPath>
			<g clip-path="url(#SVGID_80_)">
				<rect x="-346.212" y="-3.219" fill="#6D41B5" width="18.992" height="9.081"/>
			</g>
		</g>
		<g>
			<defs>
				<path id="SVGID_81_" d="M-343.474,1.404c0,0.277-0.225,0.5-0.502,0.5h-10.074c-0.277,0-0.502-0.224-0.502-0.5V1.238
					c0-0.277,0.225-0.5,0.502-0.5h10.074c0.277,0,0.502,0.223,0.502,0.5V1.404z"/>
			</defs>
			<clipPath id="SVGID_82_">
				<use xlink:href="#SVGID_81_"  overflow="visible"/>
			</clipPath>
			<g clip-path="url(#SVGID_82_)">
				<rect x="-358.509" y="-3.219" fill="#6D41B5" width="18.991" height="9.081"/>
			</g>
		</g>
		<g>
			<defs>
				<path id="SVGID_83_" d="M-325.638-1.904c0,0.276-0.225,0.5-0.502,0.5h-10.074c-0.278,0-0.502-0.224-0.502-0.5v-0.167
					c0-0.276,0.225-0.5,0.502-0.5h10.074c0.278,0,0.502,0.224,0.502,0.5V-1.904z"/>
			</defs>
			<clipPath id="SVGID_84_">
				<use xlink:href="#SVGID_83_"  overflow="visible"/>
			</clipPath>
			<g clip-path="url(#SVGID_84_)">
				<rect x="-340.673" y="-6.528" fill="#6D41B5" width="18.992" height="9.08"/>
			</g>
		</g>
		<g>
			<defs>
				<path id="SVGID_85_" d="M-337.935-1.904c0,0.276-0.225,0.5-0.502,0.5h-10.074c-0.277,0-0.502-0.224-0.502-0.5v-0.167
					c0-0.276,0.225-0.5,0.502-0.5h10.074c0.278,0,0.502,0.224,0.502,0.5V-1.904z"/>
			</defs>
			<clipPath id="SVGID_86_">
				<use xlink:href="#SVGID_85_"  overflow="visible"/>
			</clipPath>
			<g clip-path="url(#SVGID_86_)">
				<rect x="-352.97" y="-6.528" fill="#6D41B5" width="18.992" height="9.08"/>
			</g>
		</g>
		<g>
			<defs>
				<path id="SVGID_87_" d="M-350.198-1.904c0,0.276-0.225,0.5-0.502,0.5h-3.609c-0.278,0-0.502-0.224-0.502-0.5v-0.167
					c0-0.276,0.225-0.5,0.502-0.5h3.609c0.277,0,0.502,0.224,0.502,0.5V-1.904z"/>
			</defs>
			<clipPath id="SVGID_88_">
				<use xlink:href="#SVGID_87_"  overflow="visible"/>
			</clipPath>
			<g clip-path="url(#SVGID_88_)">
				<rect x="-358.769" y="-6.528" fill="#6D41B5" width="12.527" height="9.08"/>
			</g>
		</g>
		<g>
			<defs>
				<path id="SVGID_89_" d="M-351.707-5.64c0,0.276-0.225,0.5-0.502,0.5h-3.609c-0.278,0-0.503-0.224-0.503-0.5v-0.167
					c0-0.276,0.225-0.5,0.503-0.5h3.609c0.277,0,0.502,0.224,0.502,0.5V-5.64z"/>
			</defs>
			<clipPath id="SVGID_90_">
				<use xlink:href="#SVGID_89_"  overflow="visible"/>
			</clipPath>
			<g clip-path="url(#SVGID_90_)">
				<rect x="-360.277" y="-10.263" fill="#6D41B5" width="12.527" height="9.08"/>
			</g>
		</g>
		<g>
			<defs>
				<path id="SVGID_91_" d="M-331.177-9.279c0,0.277-0.226,0.5-0.503,0.5h-10.074c-0.278,0-0.502-0.224-0.502-0.5v-0.166
					c0-0.277,0.225-0.5,0.502-0.5h10.074c0.277,0,0.503,0.224,0.503,0.5V-9.279z"/>
			</defs>
			<clipPath id="SVGID_92_">
				<use xlink:href="#SVGID_91_"  overflow="visible"/>
			</clipPath>
			<g clip-path="url(#SVGID_92_)">
				<rect x="-346.212" y="-13.903" fill="#6D41B5" width="18.992" height="9.081"/>
			</g>
		</g>
		<g>
			<defs>
				<path id="SVGID_93_" d="M-343.474-9.279c0,0.277-0.225,0.5-0.502,0.5h-10.074c-0.277,0-0.502-0.224-0.502-0.5v-0.166
					c0-0.277,0.225-0.5,0.502-0.5h10.074c0.277,0,0.502,0.224,0.502,0.5V-9.279z"/>
			</defs>
			<clipPath id="SVGID_94_">
				<use xlink:href="#SVGID_93_"  overflow="visible"/>
			</clipPath>
			<g clip-path="url(#SVGID_94_)">
				<rect x="-358.509" y="-13.903" fill="#6D41B5" width="18.991" height="9.081"/>
			</g>
		</g>
		<g>
			<defs>
				<path id="SVGID_95_" d="M-325.638-12.587c0,0.276-0.225,0.5-0.502,0.5h-10.074c-0.278,0-0.502-0.224-0.502-0.5v-0.167
					c0-0.276,0.225-0.5,0.502-0.5h10.074c0.278,0,0.502,0.224,0.502,0.5V-12.587z"/>
			</defs>
			<clipPath id="SVGID_96_">
				<use xlink:href="#SVGID_95_"  overflow="visible"/>
			</clipPath>
			<g clip-path="url(#SVGID_96_)">
				<rect x="-340.673" y="-17.211" fill="#6D41B5" width="18.992" height="9.08"/>
			</g>
		</g>
		<g>
			<defs>
				<path id="SVGID_97_" d="M-337.935-12.587c0,0.276-0.225,0.5-0.502,0.5h-10.074c-0.277,0-0.502-0.224-0.502-0.5v-0.167
					c0-0.276,0.225-0.5,0.502-0.5h10.074c0.278,0,0.502,0.224,0.502,0.5V-12.587z"/>
			</defs>
			<clipPath id="SVGID_98_">
				<use xlink:href="#SVGID_97_"  overflow="visible"/>
			</clipPath>
			<g clip-path="url(#SVGID_98_)">
				<rect x="-352.97" y="-17.211" fill="#6D41B5" width="18.992" height="9.08"/>
			</g>
		</g>
		<g>
			<defs>
				<path id="SVGID_99_" d="M-350.198-12.587c0,0.276-0.225,0.5-0.502,0.5h-3.609c-0.278,0-0.502-0.224-0.502-0.5v-0.167
					c0-0.276,0.225-0.5,0.502-0.5h3.609c0.277,0,0.502,0.224,0.502,0.5V-12.587z"/>
			</defs>
			<clipPath id="SVGID_100_">
				<use xlink:href="#SVGID_99_"  overflow="visible"/>
			</clipPath>
			<g clip-path="url(#SVGID_100_)">
				<rect x="-358.769" y="-17.211" fill="#6D41B5" width="12.527" height="9.08"/>
			</g>
		</g>
		<g>
			<defs>
				<path id="SVGID_101_" d="M-351.707-16.13c0,0.276-0.225,0.5-0.502,0.5h-3.609c-0.278,0-0.503-0.224-0.503-0.5v-0.167
					c0-0.276,0.225-0.5,0.503-0.5h3.609c0.277,0,0.502,0.224,0.502,0.5V-16.13z"/>
			</defs>
			<clipPath id="SVGID_102_">
				<use xlink:href="#SVGID_101_"  overflow="visible"/>
			</clipPath>
			<g clip-path="url(#SVGID_102_)">
				<rect x="-360.277" y="-20.753" fill="#6D41B5" width="12.527" height="9.081"/>
			</g>
		</g>
		<g>
			<defs>
				<path id="SVGID_103_" d="M-319.683-22.84c0,0.276-0.225,0.5-0.502,0.5h-3.609c-0.278,0-0.503-0.224-0.503-0.5v-0.167
					c0-0.276,0.225-0.5,0.503-0.5h3.609c0.277,0,0.502,0.224,0.502,0.5V-22.84z"/>
			</defs>
			<clipPath id="SVGID_104_">
				<use xlink:href="#SVGID_103_"  overflow="visible"/>
			</clipPath>
			<g clip-path="url(#SVGID_104_)">
				<rect x="-328.253" y="-27.463" fill="#6D41B5" width="12.527" height="9.081"/>
			</g>
		</g>
		<g>
			<defs>
				<path id="SVGID_105_" d="M-325.638-22.84c0,0.276-0.225,0.5-0.502,0.5h-11.867c-0.278,0-0.503-0.224-0.503-0.5v-0.167
					c0-0.276,0.225-0.5,0.503-0.5h11.867c0.278,0,0.502,0.224,0.502,0.5V-22.84z"/>
			</defs>
			<clipPath id="SVGID_106_">
				<use xlink:href="#SVGID_105_"  overflow="visible"/>
			</clipPath>
			<g clip-path="url(#SVGID_106_)">
				<rect x="-342.466" y="-27.463" fill="#6D41B5" width="20.785" height="9.081"/>
			</g>
		</g>
		<g>
			<defs>
				<path id="SVGID_107_" d="M-339.828-22.84c0,0.276-0.225,0.5-0.502,0.5h-8.18c-0.277,0-0.502-0.224-0.502-0.5v-0.167
					c0-0.276,0.225-0.5,0.502-0.5h8.18c0.277,0,0.502,0.224,0.502,0.5V-22.84z"/>
			</defs>
			<clipPath id="SVGID_108_">
				<use xlink:href="#SVGID_107_"  overflow="visible"/>
			</clipPath>
			<g clip-path="url(#SVGID_108_)">
				<rect x="-352.97" y="-27.463" fill="#6D41B5" width="17.098" height="9.081"/>
			</g>
		</g>
		<g>
			<defs>
				<path id="SVGID_109_" d="M-350.198-22.84c0,0.276-0.225,0.5-0.502,0.5h-3.609c-0.278,0-0.502-0.224-0.502-0.5v-0.167
					c0-0.276,0.225-0.5,0.502-0.5h3.609c0.277,0,0.502,0.224,0.502,0.5V-22.84z"/>
			</defs>
			<clipPath id="SVGID_110_">
				<use xlink:href="#SVGID_109_"  overflow="visible"/>
			</clipPath>
			<g clip-path="url(#SVGID_110_)">
				<rect x="-358.769" y="-27.463" fill="#6D41B5" width="12.527" height="9.081"/>
			</g>
		</g>
		<g>
			<defs>
				<path id="SVGID_111_" d="M-325.638-26.194c0,0.276-0.225,0.5-0.502,0.5h-10.074c-0.278,0-0.502-0.224-0.502-0.5v-0.167
					c0-0.276,0.225-0.5,0.502-0.5h10.074c0.278,0,0.502,0.224,0.502,0.5V-26.194z"/>
			</defs>
			<clipPath id="SVGID_112_">
				<use xlink:href="#SVGID_111_"  overflow="visible"/>
			</clipPath>
			<g clip-path="url(#SVGID_112_)">
				<rect x="-340.673" y="-30.818" fill="#6D41B5" width="18.992" height="9.081"/>
			</g>
		</g>
		<g>
			<defs>
				<path id="SVGID_113_" d="M-337.935-26.194c0,0.276-0.225,0.5-0.502,0.5h-10.074c-0.277,0-0.502-0.224-0.502-0.5v-0.167
					c0-0.276,0.225-0.5,0.502-0.5h10.074c0.278,0,0.502,0.224,0.502,0.5V-26.194z"/>
			</defs>
			<clipPath id="SVGID_114_">
				<use xlink:href="#SVGID_113_"  overflow="visible"/>
			</clipPath>
			<g clip-path="url(#SVGID_114_)">
				<rect x="-352.97" y="-30.818" fill="#6D41B5" width="18.992" height="9.081"/>
			</g>
		</g>
		<g>
			<defs>
				<path id="SVGID_115_" d="M-350.198-26.194c0,0.276-0.225,0.5-0.502,0.5h-3.609c-0.278,0-0.502-0.224-0.502-0.5v-0.167
					c0-0.276,0.225-0.5,0.502-0.5h3.609c0.277,0,0.502,0.224,0.502,0.5V-26.194z"/>
			</defs>
			<clipPath id="SVGID_116_">
				<use xlink:href="#SVGID_115_"  overflow="visible"/>
			</clipPath>
			<g clip-path="url(#SVGID_116_)">
				<rect x="-358.769" y="-30.818" fill="#6D41B5" width="12.527" height="9.081"/>
			</g>
		</g>
		<g>
			<defs>
				<path id="SVGID_117_" d="M-351.707-29.549c0,0.276-0.225,0.5-0.502,0.5h-3.609c-0.278,0-0.503-0.224-0.503-0.5v-0.167
					c0-0.276,0.225-0.5,0.503-0.5h3.609c0.277,0,0.502,0.224,0.502,0.5V-29.549z"/>
			</defs>
			<clipPath id="SVGID_118_">
				<use xlink:href="#SVGID_117_"  overflow="visible"/>
			</clipPath>
			<g clip-path="url(#SVGID_118_)">
				<rect x="-360.277" y="-34.173" fill="#6D41B5" width="12.527" height="9.08"/>
			</g>
		</g>
		<g>
			<defs>
				<path id="SVGID_119_" d="M-351.707-32.883c0,0.276-0.225,0.5-0.502,0.5h-3.609c-0.278,0-0.503-0.224-0.503-0.5v-0.167
					c0-0.276,0.225-0.5,0.503-0.5h3.609c0.277,0,0.502,0.224,0.502,0.5V-32.883z"/>
			</defs>
			<clipPath id="SVGID_120_">
				<use xlink:href="#SVGID_119_"  overflow="visible"/>
			</clipPath>
			<g clip-path="url(#SVGID_120_)">
				<rect x="-360.277" y="-37.507" fill="#6D41B5" width="12.527" height="9.081"/>
			</g>
		</g>
		<g>
			<defs>
				<path id="SVGID_121_" d="M-325.638-36.238c0,0.276-0.225,0.5-0.502,0.5h-10.074c-0.278,0-0.502-0.224-0.502-0.5v-0.167
					c0-0.276,0.225-0.5,0.502-0.5h10.074c0.278,0,0.502,0.224,0.502,0.5V-36.238z"/>
			</defs>
			<clipPath id="SVGID_122_">
				<use xlink:href="#SVGID_121_"  overflow="visible"/>
			</clipPath>
			<g clip-path="url(#SVGID_122_)">
				<rect x="-340.673" y="-40.862" fill="#6D41B5" width="18.992" height="9.08"/>
			</g>
		</g>
		<g>
			<defs>
				<path id="SVGID_123_" d="M-337.935-36.238c0,0.276-0.225,0.5-0.502,0.5h-10.074c-0.277,0-0.502-0.224-0.502-0.5v-0.167
					c0-0.276,0.225-0.5,0.502-0.5h10.074c0.278,0,0.502,0.224,0.502,0.5V-36.238z"/>
			</defs>
			<clipPath id="SVGID_124_">
				<use xlink:href="#SVGID_123_"  overflow="visible"/>
			</clipPath>
			<g clip-path="url(#SVGID_124_)">
				<rect x="-352.97" y="-40.862" fill="#6D41B5" width="18.992" height="9.08"/>
			</g>
		</g>
		<g>
			<defs>
				<path id="SVGID_125_" d="M-350.198-36.238c0,0.276-0.225,0.5-0.502,0.5h-3.609c-0.278,0-0.502-0.224-0.502-0.5v-0.167
					c0-0.276,0.225-0.5,0.502-0.5h3.609c0.277,0,0.502,0.224,0.502,0.5V-36.238z"/>
			</defs>
			<clipPath id="SVGID_126_">
				<use xlink:href="#SVGID_125_"  overflow="visible"/>
			</clipPath>
			<g clip-path="url(#SVGID_126_)">
				<rect x="-358.769" y="-40.862" fill="#6D41B5" width="12.527" height="9.08"/>
			</g>
		</g>
		<g>
			<defs>
				<path id="SVGID_127_" d="M-319.683-39.593c0,0.276-0.225,0.5-0.502,0.5h-3.609c-0.278,0-0.503-0.224-0.503-0.5v-0.167
					c0-0.276,0.225-0.5,0.503-0.5h3.609c0.277,0,0.502,0.224,0.502,0.5V-39.593z"/>
			</defs>
			<clipPath id="SVGID_128_">
				<use xlink:href="#SVGID_127_"  overflow="visible"/>
			</clipPath>
			<g clip-path="url(#SVGID_128_)">
				<rect x="-328.253" y="-44.217" fill="#6D41B5" width="12.527" height="9.081"/>
			</g>
		</g>
		<g>
			<defs>
				<path id="SVGID_129_" d="M-325.638-39.593c0,0.276-0.225,0.5-0.502,0.5h-11.867c-0.278,0-0.503-0.224-0.503-0.5v-0.167
					c0-0.276,0.225-0.5,0.503-0.5h11.867c0.278,0,0.502,0.224,0.502,0.5V-39.593z"/>
			</defs>
			<clipPath id="SVGID_130_">
				<use xlink:href="#SVGID_129_"  overflow="visible"/>
			</clipPath>
			<g clip-path="url(#SVGID_130_)">
				<rect x="-342.466" y="-44.217" fill="#6D41B5" width="20.785" height="9.081"/>
			</g>
		</g>
		<g>
			<defs>
				<path id="SVGID_131_" d="M-339.828-39.593c0,0.276-0.225,0.5-0.502,0.5h-8.18c-0.277,0-0.502-0.224-0.502-0.5v-0.167
					c0-0.276,0.225-0.5,0.502-0.5h8.18c0.277,0,0.502,0.224,0.502,0.5V-39.593z"/>
			</defs>
			<clipPath id="SVGID_132_">
				<use xlink:href="#SVGID_131_"  overflow="visible"/>
			</clipPath>
			<g clip-path="url(#SVGID_132_)">
				<rect x="-352.97" y="-44.217" fill="#6D41B5" width="17.098" height="9.081"/>
			</g>
		</g>
		<g>
			<defs>
				<path id="SVGID_133_" d="M-350.198-39.593c0,0.276-0.225,0.5-0.502,0.5h-3.609c-0.278,0-0.502-0.224-0.502-0.5v-0.167
					c0-0.276,0.225-0.5,0.502-0.5h3.609c0.277,0,0.502,0.224,0.502,0.5V-39.593z"/>
			</defs>
			<clipPath id="SVGID_134_">
				<use xlink:href="#SVGID_133_"  overflow="visible"/>
			</clipPath>
			<g clip-path="url(#SVGID_134_)">
				<rect x="-358.769" y="-44.217" fill="#6D41B5" width="12.527" height="9.081"/>
			</g>
		</g>
		<g>
			<defs>
				<path id="SVGID_135_" d="M-325.638-42.948c0,0.276-0.225,0.5-0.502,0.5h-10.074c-0.278,0-0.502-0.225-0.502-0.5v-0.167
					c0-0.276,0.225-0.5,0.502-0.5h10.074c0.278,0,0.502,0.225,0.502,0.5V-42.948z"/>
			</defs>
			<clipPath id="SVGID_136_">
				<use xlink:href="#SVGID_135_"  overflow="visible"/>
			</clipPath>
			<g clip-path="url(#SVGID_136_)">
				<rect x="-340.673" y="-47.571" fill="#6D41B5" width="18.992" height="9.08"/>
			</g>
		</g>
		<g>
			<defs>
				<path id="SVGID_137_" d="M-337.935-42.948c0,0.276-0.225,0.5-0.502,0.5h-10.074c-0.277,0-0.502-0.225-0.502-0.5v-0.167
					c0-0.276,0.225-0.5,0.502-0.5h10.074c0.278,0,0.502,0.225,0.502,0.5V-42.948z"/>
			</defs>
			<clipPath id="SVGID_138_">
				<use xlink:href="#SVGID_137_"  overflow="visible"/>
			</clipPath>
			<g clip-path="url(#SVGID_138_)">
				<rect x="-352.97" y="-47.571" fill="#6D41B5" width="18.992" height="9.08"/>
			</g>
		</g>
		<g>
			<defs>
				<path id="SVGID_139_" d="M-350.198-42.948c0,0.276-0.225,0.5-0.502,0.5h-3.609c-0.278,0-0.502-0.225-0.502-0.5v-0.167
					c0-0.276,0.225-0.5,0.502-0.5h3.609c0.277,0,0.502,0.225,0.502,0.5V-42.948z"/>
			</defs>
			<clipPath id="SVGID_140_">
				<use xlink:href="#SVGID_139_"  overflow="visible"/>
			</clipPath>
			<g clip-path="url(#SVGID_140_)">
				<rect x="-358.769" y="-47.571" fill="#6D41B5" width="12.527" height="9.08"/>
			</g>
		</g>
		<g>
			<defs>
				<path id="SVGID_141_" d="M-351.707-46.303c0,0.276-0.225,0.5-0.502,0.5h-3.609c-0.278,0-0.503-0.224-0.503-0.5v-0.167
					c0-0.276,0.225-0.5,0.503-0.5h3.609c0.277,0,0.502,0.224,0.502,0.5V-46.303z"/>
			</defs>
			<clipPath id="SVGID_142_">
				<use xlink:href="#SVGID_141_"  overflow="visible"/>
			</clipPath>
			<g clip-path="url(#SVGID_142_)">
				<rect x="-360.277" y="-50.926" fill="#6D41B5" width="12.527" height="9.08"/>
			</g>
		</g>
		<path fill="none" stroke="#979797" stroke-miterlimit="10" d="M-358.914-56.667c0-0.276,0.225-0.5,0.502-0.5h98.449
			c0.277,0,0.502,0.225,0.502,0.5V9.386c0,0.276-0.225,0.5-0.502,0.5h-98.449c-0.277,0-0.502-0.224-0.502-0.5V-56.667z"/>
		<line fill="none" stroke="#979797" stroke-miterlimit="10" x1="-259.461" y1="-50.048" x2="-358.914" y2="-50.048"/>
		<ellipse fill="none" stroke="#979797" stroke-miterlimit="10" cx="-354.812" cy="-53.514" rx="1.509" ry="1.502"/>
		<ellipse fill="none" stroke="#979797" stroke-miterlimit="10" cx="-350.198" cy="-53.514" rx="1.509" ry="1.502"/>
		<ellipse fill="none" stroke="#979797" stroke-miterlimit="10" cx="-345.584" cy="-53.514" rx="1.508" ry="1.502"/>
		<line fill="none" stroke="#979797" stroke-miterlimit="10" x1="-310.477" y1="-49.637" x2="-310.477" y2="9.709"/>
	</g>
	<g id="phone">
		<path fill="none" stroke="#979797" stroke-miterlimit="10" d="M-203.285,223.79c0,1.254-1.017,2.27-2.27,2.27h-37.261
			c-1.253,0-2.27-1.016-2.27-2.27v-67.524c0-1.252,1.016-2.269,2.27-2.269h37.261c1.253,0,2.27,1.017,2.27,2.269V223.79z"/>
		<path fill="none" stroke="#6D41B5" stroke-miterlimit="10" d="M-208.681,212.756c0,1.252-1.018,2.269-2.271,2.269h-25.534
			c-1.253,0-2.27-1.017-2.27-2.269v-49.368c0-1.252,1.017-2.27,2.27-2.27h25.534c1.253,0,2.271,1.018,2.271,2.27V212.756z"/>
		<circle fill="none" stroke="#485E69" stroke-miterlimit="10" cx="-223.919" cy="220.271" r="2.175"/>
	</g>
	<g id="monitor">
		<g>
			<defs>
				<rect id="SVGID_143_" x="424.39" y="157.162" width="91.796" height="53.812"/>
			</defs>
			<clipPath id="SVGID_144_">
				<use xlink:href="#SVGID_143_"  overflow="visible"/>
			</clipPath>
			<g clip-path="url(#SVGID_144_)">
				
					<rect x="424.39" y="157.162" fill="none" stroke="#6D41B5" stroke-width="2" stroke-miterlimit="10" width="91.796" height="53.812"/>
			</g>
		</g>
		
			<line fill="none" stroke="#979797" stroke-linecap="square" stroke-miterlimit="10" x1="447.734" y1="215.326" x2="492.868" y2="215.326"/>
		
			<line fill="none" stroke="#979797" stroke-linecap="square" stroke-miterlimit="10" x1="501.545" y1="220.074" x2="439.572" y2="220.074"/>
		
			<line fill="none" stroke="#6D41B5" stroke-linecap="square" stroke-miterlimit="10" x1="515.804" y1="198.708" x2="425.328" y2="198.708"/>
	</g>
	<g id="chat">
		<g>
			<defs>
				<polygon id="SVGID_145_" points="311.745,131.564 345.346,131.564 345.346,144.165 347.447,144.165 347.447,129.465 
					309.646,129.465 309.646,158.865 324.346,158.865 324.346,156.767 311.745,156.767 				"/>
			</defs>
			<clipPath id="SVGID_146_">
				<use xlink:href="#SVGID_145_"  overflow="visible"/>
			</clipPath>
			<g clip-path="url(#SVGID_146_)">
				<rect x="305.688" y="125.509" fill="#979797" width="45.716" height="37.313"/>
			</g>
		</g>
		<g>
			<defs>
				<path id="SVGID_147_" d="M362.147,173.567h-6.301v7.167l-7.22-7.167h-20.081v-25.201h33.602V173.567z M326.445,146.266v29.402
					h21.342l8.401,8.399h1.759v-8.399h6.3v-29.402H326.445z"/>
			</defs>
			<clipPath id="SVGID_148_">
				<use xlink:href="#SVGID_147_"  overflow="visible"/>
			</clipPath>
			<g clip-path="url(#SVGID_148_)">
				<rect x="322.489" y="142.309" fill="#6D41B5" width="45.715" height="45.716"/>
			</g>
		</g>
	</g>
</g>
<g id="alchemist-emblem">
	<path id="glass-white" fill="#FFFFFF" d="M111.801,60.386c0-0.482-0.319-0.817-0.606-0.817H58.622
		c-0.288,0-0.606,0.335-0.606,0.817v54.486L7.854,141.005v105.562l77.587,40.416l77.588-40.416V141.005l-51.229-26.687V60.386z"/>
	<g id="glass-blue">
		<path fill-rule="evenodd" clip-rule="evenodd" fill="#C7EBF9" d="M7.854,255.841l77.587,40.416l77.588-40.416V150.277
			l-51.229-26.687V69.659c0-0.481-0.319-0.816-0.606-0.816H58.622c-0.288,0-0.606,0.335-0.606,0.816v54.488l-50.162,26.13V255.841z"
			/>
	</g>
	<path id="bottle-outside" fill="#302D35" d="M126.638,105.317V60.386c0-0.449-0.021-0.892-0.059-1.331h20.299V44.217H24.005v14.838
		h19.232c-0.036,0.438-0.059,0.881-0.059,1.331v45.487l-50.162,26.131v123.562l92.424,48.146l92.424-48.146V132.004L126.638,105.317
		z M163.029,246.566l-77.588,40.416L7.854,246.566V141.005l50.162-26.132V60.386c0-0.482,0.319-0.817,0.606-0.817h52.572
		c0.288,0,0.606,0.335,0.606,0.817v53.932l51.229,26.687V246.566z"/>
	<polygon id="bottle-inside" fill="#302D35" points="85.441,271.012 24.066,239.128 24.066,144.131 39.008,144.131 39.008,230.088 
		85.441,254.211 131.876,230.088 131.876,144.131 146.816,144.131 146.816,234.07 146.816,239.128 144.147,240.513 	"/>
	<g id="pinas">
		<polygon id="sun" fill="#6E41B5" points="81.333,163.903 75.294,158.297 77.135,150.262 85.011,147.84 91.045,153.449 
			89.208,161.479 		"/>
		<polygon id="star3" fill="#6E41B5" points="88.578,181.108 85.273,178.038 86.281,173.645 90.59,172.318 93.892,175.387 
			92.886,179.781 		"/>
		<polygon id="star1" fill="#6E41B5" points="57.981,146.617 62.313,145.371 65.56,148.5 64.474,152.875 60.141,154.123 
			56.897,150.992 		"/>
		<polygon id="star2" fill="#6E41B5" points="101.904,136.388 101.062,140.817 96.804,142.302 93.39,139.355 94.233,134.925 
			98.489,133.446 		"/>
	</g>
	<polygon id="clipglass" fill-rule="evenodd" clip-rule="evenodd" fill="#FFFFFF" points="131.876,230.088 131.876,191.108 
		39.008,191.108 39.008,230.088 85.441,254.211 	"/>
	<path id="chem2" fill-rule="evenodd" clip-rule="evenodd" fill="#A486E2" d="M154.574,229.314
		c-13.324-28.984-47.939-41.797-76.924-28.473l-40.379,18.562C8.286,232.728-4.526,267.343,8.798,296.327l18.562,40.377
		c13.324,28.984,47.94,41.797,76.924,28.474l40.38-18.562c28.985-13.323,41.797-47.938,28.473-76.923L154.574,229.314z"/>
	<path id="chem1" fill-rule="evenodd" clip-rule="evenodd" fill="#6E41B5" d="M16.36,229.314
		c13.324-28.984,47.94-41.797,76.924-28.473l40.379,18.562c28.985,13.324,41.797,47.939,28.473,76.924l-18.562,40.377
		c-13.324,28.984-47.94,41.797-76.924,28.474l-40.38-18.562c-28.984-13.323-41.797-47.938-28.473-76.923L16.36,229.314z"/>
</g>
</svg>
