<?xml version="1.0" encoding="utf-8"?>
<!-- Generator: Adobe Illustrator 16.0.0, SVG Export Plug-In . SVG Version: 6.00 Build 0)  -->
<!DOCTYPE svg PUBLIC "-//W3C//DTD SVG 1.1//EN" "http://www.w3.org/Graphics/SVG/1.1/DTD/svg11.dtd">
<svg version="1.1" id="Layer_1" xmlns="http://www.w3.org/2000/svg" xmlns:xlink="http://www.w3.org/1999/xlink" x="0px" y="0px"
	 width="200px" height="200px" viewBox="0 0 200 200" enable-background="new 0 0 200 200" xml:space="preserve">
<g>
	<path id="glass-white" fill="#FFFFFF" d="M118.272,21.271c0-0.334-0.221-0.567-0.419-0.567H81.411c-0.2,0-0.42,0.232-0.42,0.567
		v37.768L46.219,77.153v73.173L100,178.341l53.783-28.015V77.153l-35.512-18.499L118.272,21.271L118.272,21.271z"/>
	<g id="glass-blue">
		<path fill="#C7EBF9" d="M46.219,156.754L100,184.77l53.783-28.016V83.58l-35.512-18.498V27.698c0-0.333-0.221-0.565-0.42-0.565
			H81.411c-0.2,0-0.42,0.232-0.42,0.565v37.77L46.219,83.58V156.754L46.219,156.754z"/>
	</g>
	<path id="bottle-outside" fill="#302D35" d="M128.558,52.416V21.271c0-0.312-0.015-0.619-0.042-0.923h14.071V10.063H57.415v10.285
		h13.331c-0.024,0.303-0.041,0.611-0.041,0.923v31.53L35.934,70.914v85.649l64.065,33.374l64.066-33.374V70.914L128.558,52.416z
		 M153.783,150.324L100,178.34l-53.781-28.016V77.153L80.99,59.039V21.271c0-0.334,0.221-0.567,0.42-0.567h36.441
		c0.2,0,0.42,0.232,0.42,0.567v37.384l35.51,18.499v73.171H153.783z"/>
	<path fill="#A483E5" d="M63.332,138.017V120.25c0,0,2.945,10.176,22.978,6.967c24.53-3.927,17.964-20.761,50.786-20.761
		l0.303,34.645l-37.033,18.27L63.332,138.017"/>
	<path fill="#6E41B5" d="M137.398,141.224l-0.475-19.461c0,0-18.148,20.059-39.707,6.383c-21.204-13.447-27.374-12.28-33.885-6.383
		v21.521l37.034,19.293l37.017-20.194"/>
	<path fill="#302D35" d="M132.188,79.32v22.14c-16.659,0.939-23.181,6.676-28.985,11.792c-2.164,1.906-4.19,3.684-6.733,5.186
		c-13.157-7.959-21.594-10.613-28.655-8.456V79.32H57.457v65.849L100,167.27l40.694-21.141l1.851-0.96v-3.506V79.32H132.188z
		 M95.797,130.064c9.992,5.817,20.847,6.346,31.492,1.479c1.726-0.789,3.317-1.664,4.755-2.557l0.144,5.819v1.357l-31.752,17.323
		l-31.972-18.436v-3.801c4.918,1.861,11.213,2.226,18.657,1.034C90.47,131.748,93.313,130.979,95.797,130.064z M132.009,111.744
		l0.039,4.431c-3.219,3.01-13.146,10.942-25.267,7.523c1.129-0.918,2.184-1.844,3.206-2.744
		C115.058,116.486,119.512,112.562,132.009,111.744z M82.639,122.516c-1.26,0.124-2.468,0.194-3.598,0.194
		c-5.246,0-8.029-1.315-9.458-2.46C71.967,119.052,75.422,119.032,82.639,122.516z"/>
	<g id="pinas">
		<polygon id="sun" fill="#6E41B5" points="97.153,93.025 92.967,89.139 94.242,83.57 99.703,81.891 103.886,85.778 102.611,91.346 
					"/>
		<polygon id="star3" fill="#6E41B5" points="102.176,104.95 99.884,102.823 100.583,99.779 103.57,98.858 105.859,100.986 
			105.162,104.031 		"/>
		<polygon id="star1" fill="#6E41B5" points="80.966,81.043 83.969,80.18 86.219,82.349 85.467,85.38 82.463,86.246 80.214,84.076 
					"/>
		<polygon id="star2" fill="#6E41B5" points="111.413,73.953 110.829,77.023 107.878,78.052 105.512,76.009 106.095,72.938 
			109.045,71.914 		"/>
	</g>
</g>
</svg>
